# Blender v2.79 (sub 0) OBJ File: 'carrot.blend'
# www.blender.org
mtllib carrot.mtl
o Cube
v -0.346765 -1.550477 0.264407
v -0.346765 -0.450096 0.264407
v -0.346765 -1.550477 -0.516468
v -0.346765 -0.450096 -0.516468
v 0.434111 -1.550477 0.264407
v 0.434111 -0.450096 0.264407
v 0.434111 -1.550477 -0.516468
v 0.434111 -0.450096 -0.516468
v -0.182693 -2.286950 0.100336
v -0.182693 -1.533489 0.100336
v -0.182693 -2.286950 -0.352396
v -0.182693 -1.533489 -0.352396
v 0.270039 -2.286950 0.100336
v 0.270039 -1.533489 0.100336
v 0.270039 -2.286950 -0.352396
v 0.270039 -1.533489 -0.352396
v 0.038774 -0.502165 0.601384
v 0.038774 0.780674 0.601384
v 0.038774 -0.502165 -0.853445
v 0.038774 0.780674 -0.853445
v -0.529336 -0.502165 -0.580324
v -0.529336 0.780674 -0.580324
v 0.606883 -0.502165 0.328265
v 0.606883 0.780674 0.328265
v -0.665725 -0.502165 0.055115
v -0.665725 0.780674 0.055115
v 0.743272 -0.502165 -0.307174
v 0.743272 0.780674 -0.307174
v -0.499580 -2.048872 -0.216513
v -0.293781 -1.382789 -0.182851
v -0.453320 -2.048872 -0.499324
v -0.247522 -1.382789 -0.465662
v -0.229688 -2.134491 -0.172367
v -0.023889 -1.468409 -0.138703
v -0.183428 -2.134491 -0.455177
v 0.022371 -1.468409 -0.421515
v 0.552986 -1.322863 0.306412
v 0.133441 -0.776514 0.193996
v 0.627155 -1.322863 0.029607
v 0.207611 -0.776514 -0.082809
v 0.769661 -1.144531 0.364471
v 0.350117 -0.598181 0.252054
v 0.843831 -1.144531 0.087666
v 0.424286 -0.598181 -0.024751
v -1.212685 -1.050376 1.105275
v -1.212685 -1.050376 -1.373486
v 1.266078 -1.050376 1.105275
v 1.266078 -1.050376 -1.373486
v -0.076973 -0.148856 -0.855076
v 0.073481 -2.462540 -1.731708
v -0.020087 -1.023641 1.463497
v 0.130366 -3.337326 0.586865
v -0.694057 -0.148856 -0.239269
v -1.491969 -2.462540 -0.632280
v 1.545362 -1.023641 0.364069
v 0.747451 -3.337326 -0.028941
vt 1.000000 0.312500
vt 1.000000 0.468750
vt 0.875000 0.468750
vt 0.875000 0.312500
vt 1.000000 0.312500
vt 1.000000 0.468750
vt 0.875000 0.468750
vt 0.875000 0.312500
vt 1.000000 0.312500
vt 1.000000 0.468750
vt 0.875000 0.468750
vt 0.875000 0.312500
vt 1.000000 0.312500
vt 1.000000 0.468750
vt 0.875000 0.468750
vt 0.875000 0.312500
vt 0.906250 0.312500
vt 0.906250 0.343750
vt 0.875000 0.343750
vt 1.000000 0.437500
vt 0.875000 0.437500
vt 0.968750 0.218750
vt 0.968750 0.312500
vt 0.906250 0.312500
vt 0.906250 0.218750
vt 0.968750 0.218750
vt 0.968750 0.312500
vt 0.906250 0.312500
vt 0.906250 0.218750
vt 0.968750 0.218750
vt 0.968750 0.312500
vt 0.906250 0.312500
vt 0.906250 0.218750
vt 0.968750 0.218750
vt 0.968750 0.312500
vt 0.906250 0.312500
vt 0.906250 0.218750
vt 0.937500 0.250000
vt 0.937500 0.281250
vt 0.906250 0.281250
vt 0.906250 0.250000
vt 0.968750 0.343750
vt 0.968750 0.281250
vt 0.906250 0.281250
vt 0.906250 0.343750
vt 0.875000 0.218750
vt 0.875000 0.437500
vt 0.625000 0.437500
vt 0.625000 0.218750
vt 0.875000 0.218750
vt 0.875000 0.437500
vt 0.625000 0.437500
vt 0.625000 0.218750
vt 0.875000 0.218750
vt 0.875000 0.437500
vt 0.625000 0.437500
vt 0.625000 0.218750
vt 0.968750 0.093750
vt 0.968750 0.187500
vt 0.937500 0.187500
vt 0.937500 0.093750
vt 0.968750 0.093750
vt 0.968750 0.187500
vt 0.937500 0.187500
vt 0.937500 0.093750
vt 0.968750 0.093750
vt 0.968750 0.187500
vt 0.937500 0.187500
vt 0.937500 0.093750
vt 0.968750 0.093750
vt 0.968750 0.187500
vt 0.937500 0.187500
vt 0.937500 0.093750
vt 0.968750 0.125000
vt 0.968750 0.156250
vt 0.937500 0.156250
vt 0.937500 0.125000
vt 0.968750 0.156250
vt 0.937500 0.156250
vt 0.968750 0.093750
vt 0.968750 0.187500
vt 0.937500 0.187500
vt 0.937500 0.093750
vt 0.968750 0.093750
vt 0.968750 0.187500
vt 0.937500 0.187500
vt 0.937500 0.093750
vt 0.968750 0.093750
vt 0.968750 0.187500
vt 0.937500 0.187500
vt 0.937500 0.093750
vt 0.968750 0.093750
vt 0.968750 0.187500
vt 0.937500 0.187500
vt 0.937500 0.093750
vt 0.968750 0.125000
vt 0.968750 0.156250
vt 0.937500 0.156250
vt 0.937500 0.125000
vt 0.968750 0.156250
vt 0.937500 0.156250
vt 1.000000 0.500000
vt 1.000000 1.000000
vt 0.500000 1.000000
vt 0.500000 0.500000
vt 1.000000 0.500000
vt 1.000000 1.000000
vt 0.500000 1.000000
vt 0.500000 0.500000
vt 1.000000 0.500000
vt 1.000000 1.000000
vt 0.500000 1.000000
vt 0.500000 0.500000
vn -1.0000 0.0000 0.0000
vn 0.0000 0.0000 -1.0000
vn 1.0000 0.0000 0.0000
vn 0.0000 0.0000 1.0000
vn 0.0000 -1.0000 0.0000
vn 0.0000 1.0000 0.0000
vn 0.6245 0.0000 -0.7810
vn -0.2490 0.0000 -0.9685
vn -0.9418 0.2988 -0.1541
vn 0.1614 -0.0000 -0.9869
vn 0.9418 -0.2988 0.1541
vn -0.1614 -0.0000 0.9869
vn -0.2949 -0.9543 -0.0482
vn 0.2949 0.9543 0.0482
vn -0.7561 -0.6223 -0.2026
vn 0.2588 0.0000 -0.9659
vn 0.7561 0.6223 0.2026
vn -0.2588 -0.0000 0.9659
vn 0.6011 -0.7828 0.1611
vn -0.6011 0.7828 -0.1611
vn 0.9979 0.0649 -0.0000
vn 0.2831 0.0649 -0.9569
usemtl None
s off
f 1/1/1 2/2/1 4/3/1 3/4/1
f 3/5/2 4/6/2 8/7/2 7/8/2
f 7/9/3 8/10/3 6/11/3 5/12/3
f 5/13/4 6/14/4 2/15/4 1/16/4
f 3/17/5 7/18/5 5/19/5 1/16/5
f 8/20/6 4/6/6 2/15/6 6/21/6
f 9/22/1 10/23/1 12/24/1 11/25/1
f 11/26/2 12/27/2 16/28/2 15/29/2
f 15/30/3 16/31/3 14/32/3 13/33/3
f 13/34/4 14/35/4 10/36/4 9/37/4
f 11/38/5 15/39/5 13/40/5 9/41/5
f 16/42/6 12/43/6 10/44/6 14/45/6
f 17/46/1 18/47/1 20/48/1 19/49/1
f 21/50/7 22/51/7 24/52/7 23/53/7
f 25/54/8 26/55/8 28/56/8 27/57/8
f 29/58/9 30/59/9 32/60/9 31/61/9
f 31/62/10 32/63/10 36/64/10 35/65/10
f 35/66/11 36/67/11 34/68/11 33/69/11
f 33/70/12 34/71/12 30/72/12 29/73/12
f 31/74/13 35/75/13 33/76/13 29/77/13
f 36/67/14 32/78/14 30/79/14 34/68/14
f 37/80/15 38/81/15 40/82/15 39/83/15
f 39/84/16 40/85/16 44/86/16 43/87/16
f 43/88/17 44/89/17 42/90/17 41/91/17
f 41/92/18 42/93/18 38/94/18 37/95/18
f 39/96/19 43/97/19 41/98/19 37/99/19
f 44/89/20 40/100/20 38/101/20 42/90/20
f 48/102/6 46/103/6 45/104/6 47/105/6
f 52/106/21 50/107/21 49/108/21 51/109/21
f 56/110/22 54/111/22 53/112/22 55/113/22
