# Blender v2.79 (sub 0) OBJ File: ''
# www.blender.org
mtllib human_skull.mtl
o Cube
v -0.540400 -0.701969 -0.650037
v 0.551638 -0.704225 -0.639028
v 0.540400 -0.923477 0.430773
v -0.551638 -0.921221 0.419764
v -0.540400 0.367889 -0.430773
v 0.551638 0.365633 -0.419764
v 0.540400 0.146381 0.650037
v -0.551638 0.148637 0.639028
v 0.018449 -0.700175 -0.637442
v 0.018436 -0.850578 -0.666927
v -0.094993 -0.699941 -0.638586
v -0.095006 -0.850344 -0.668071
v -0.093357 -0.699944 -0.638569
v -0.093370 -0.850347 -0.668054
v -0.206799 -0.699710 -0.639713
v -0.206813 -0.850113 -0.669198
v 0.257402 -0.700669 -0.635033
v 0.257388 -0.851072 -0.664518
v 0.135528 -0.700417 -0.636262
v 0.135515 -0.850820 -0.665747
v 0.140097 -0.700426 -0.636216
v 0.140083 -0.850829 -0.665701
v 0.018223 -0.700174 -0.637444
v 0.018210 -0.850578 -0.666929
v 0.018449 -0.711652 -0.581442
v 0.018436 -0.862055 -0.610927
v -0.094993 -0.711418 -0.582585
v -0.095006 -0.861821 -0.612070
v -0.093357 -0.711421 -0.582569
v -0.093370 -0.861824 -0.612054
v -0.206799 -0.711187 -0.583713
v -0.206813 -0.861590 -0.613198
v 0.257402 -0.712146 -0.579033
v 0.257388 -0.862549 -0.608518
v 0.135528 -0.711894 -0.580262
v 0.135515 -0.862297 -0.609747
v 0.140097 -0.711903 -0.580216
v 0.140083 -0.862306 -0.609701
v 0.018223 -0.711652 -0.581444
v 0.018210 -0.862055 -0.610929
vt 0.250000 0.750000
vt 0.500000 0.750000
vt 0.500000 1.000000
vt 0.250000 1.000000
vt 0.250000 0.750000
vt 0.500000 0.750000
vt 0.500000 1.000000
vt 0.250000 1.000000
vt 0.500000 0.531250
vt 0.500000 0.750000
vt 0.250000 0.750000
vt 0.250000 0.531250
vt 0.000000 0.750000
vt 0.000000 0.531250
vt 0.750000 0.750000
vt 0.750000 0.531250
vt 1.000000 0.531250
vt 1.000000 0.750000
vt 0.750000 0.750000
vt 0.500000 0.750000
vt 0.500000 0.531250
vt 0.750000 0.531250
vt 0.375000 0.500000
vt 0.406250 0.500000
vt 0.406250 0.531250
vt 0.375000 0.531250
vt 0.406250 0.500000
vt 0.437500 0.500000
vt 0.437500 0.531250
vt 0.406250 0.531250
vt 0.312500 0.500000
vt 0.343750 0.500000
vt 0.343750 0.531250
vt 0.312500 0.531250
vt 0.312500 0.500000
vt 0.343750 0.500000
vt 0.343750 0.531250
vt 0.312500 0.531250
vt 0.375000 0.500000
vt 0.406250 0.500000
vt 0.406250 0.531250
vt 0.375000 0.531250
vt 0.406250 0.500000
vt 0.437500 0.500000
vt 0.437500 0.531250
vt 0.406250 0.531250
vt 0.312500 0.500000
vt 0.343750 0.500000
vt 0.343750 0.531250
vt 0.312500 0.531250
vt 0.312500 0.500000
vt 0.343750 0.500000
vt 0.343750 0.531250
vt 0.312500 0.531250
vn 0.0000 -0.9796 -0.2008
vn 0.0000 0.9796 0.2008
vn 0.0103 0.2008 -0.9796
vn 0.9999 -0.0021 0.0101
vn -0.0103 -0.2008 0.9796
vn -0.9999 0.0021 -0.0101
vn 0.0103 0.1924 -0.9813
vn 1.0000 -0.0001 -0.0000
vn -1.0000 0.0001 0.0000
vn 0.0196 0.5451 -0.8381
usemtl Material
s off
f 1/1/1 2/2/1 3/3/1 4/4/1
f 5/5/2 8/6/2 7/7/2 6/8/2
f 1/9/3 5/10/3 6/11/3 2/12/3
f 2/12/4 6/11/4 7/13/4 3/14/4
f 3/15/5 7/16/5 8/17/5 4/18/5
f 5/19/6 1/20/6 4/21/6 8/22/6
f 9/23/7 10/24/7 12/25/7 11/26/7
f 13/27/7 14/28/7 16/29/7 15/30/7
f 17/31/7 18/32/7 20/33/7 19/34/7
f 21/35/7 22/36/7 24/37/7 23/38/7
f 25/39/7 26/40/7 28/41/7 27/42/7
f 29/43/7 30/44/7 32/45/7 31/46/7
f 33/47/7 34/48/7 36/49/7 35/50/7
f 37/51/7 38/52/7 40/53/7 39/54/7
f 18/32/8 17/31/8 33/47/8 34/48/8
f 15/30/9 16/29/9 32/45/9 31/46/9
f 12/25/10 10/24/10 14/28/10 16/29/10
f 20/33/1 18/32/1 34/48/1 36/49/1
f 24/37/1 22/36/1 38/52/1 40/53/1
f 28/41/2 26/40/2 10/24/2 14/28/2
f 32/45/2 30/44/2 12/25/2 16/29/2
