# Blender v2.79 (sub 0) OBJ File: 'melon.blend'
# www.blender.org
mtllib melons.mtl
o Cube
v -1.453770 -0.904483 0.335165
v -1.455851 0.227920 0.336401
v -0.912163 -0.902402 -0.659319
v -0.914244 0.230001 -0.658082
v -0.459286 -0.903246 0.876775
v -0.461368 0.229156 0.878011
v 0.082321 -0.901165 -0.117709
v 0.080240 0.231237 -0.116473
v -0.479303 -0.741381 0.063256
v -0.480398 -0.145296 0.063907
v -0.194206 -0.740286 -0.460231
v -0.195301 -0.144201 -0.459580
v 0.044183 -0.740730 0.348354
v 0.043088 -0.144645 0.349005
v 0.329280 -0.739635 -0.175133
v 0.328185 -0.143550 -0.174482
v 1.058669 -0.875329 -1.336815
v 1.151140 -0.062185 -1.291481
v 1.441810 -0.959026 -0.617088
v 1.534281 -0.145882 -0.571754
v 0.340017 -0.815321 -0.947268
v 0.432488 -0.002177 -0.901934
v 0.723157 -0.899018 -0.227541
v 0.815629 -0.085874 -0.182207
v 0.849722 -0.773362 -0.632474
v 0.898398 -0.345332 -0.608611
v 1.051404 -0.817420 -0.253617
v 1.100079 -0.389389 -0.229753
v 0.471431 -0.741775 -0.427421
v 0.520107 -0.313744 -0.403557
v 0.673112 -0.785832 -0.048563
v 0.721788 -0.357802 -0.024700
v 0.815019 -0.875216 0.378789
v 0.882269 -0.283854 0.411758
v 1.093660 -0.936085 0.902214
v 1.160910 -0.344723 0.935183
v 0.292376 -0.831575 0.662088
v 0.359626 -0.240213 0.695058
v 0.571017 -0.892444 1.185513
v 0.638268 -0.301082 1.218483
v -1.913151 -0.849316 1.998243
v -1.913151 -0.849316 -1.785303
v 1.870399 -0.849316 1.998243
v 1.870399 -0.849316 -1.785303
v -1.947239 -0.755046 -0.114765
v 0.199857 -0.755046 -1.819393
v -0.242609 -0.755046 2.032333
v 1.904487 -0.755046 0.327705
v 1.011623 0.508524 -0.792092
v 1.185491 -0.011571 -0.759744
v 0.568927 0.289362 -0.713943
v 0.742795 -0.230732 -0.681596
v 1.113318 0.397089 -0.570491
v 0.964120 -0.123005 -0.665446
v 1.553159 0.177928 -0.477611
v 1.403961 -0.342167 -0.572566
v -0.767002 0.786190 -0.050793
v -0.638419 0.266096 -0.172213
v -0.964707 0.567029 0.352939
v -0.836124 0.046934 0.231518
v -0.289641 0.736102 0.191715
v -0.114023 0.216007 0.212566
v -0.726243 0.516940 0.298791
v -0.550625 -0.003154 0.319641
v -0.515645 0.736102 -0.069770
v -0.540888 0.216007 -0.244811
v -0.299378 0.516940 0.324330
v -0.324620 -0.003154 0.149289
v 0.771778 0.195747 0.769633
v 0.746535 -0.324347 0.594592
v 0.988046 -0.023414 1.163733
v 0.962803 -0.543509 0.988692
v 0.771778 -0.346449 0.064399
v 0.746535 -0.866543 -0.110642
v 0.988046 -0.565611 0.458499
v 0.962803 -1.085705 0.283458
v -0.215732 -0.346449 -1.105375
v -0.050535 -0.866543 -1.168512
v -0.552589 -0.565611 -0.807694
v -0.387392 -1.085705 -0.870832
v -0.012498 -0.493198 0.993630
v -0.220533 -0.649164 1.477542
v -0.382592 -0.782990 0.822839
v -0.590626 -0.938956 1.306751
v -1.524596 -0.956919 0.356017
v -1.526870 -0.420913 0.357368
v -0.932976 -0.954646 -0.730298
v -0.935249 -0.418640 -0.728948
v -0.438281 -0.955569 0.947640
v -0.440554 -0.419562 0.948991
v 0.153339 -0.953296 -0.138675
v 0.151066 -0.417289 -0.137325
v 1.069009 -0.908914 -1.385934
v 1.169347 -0.372647 -1.336743
v 1.484748 -0.999732 -0.604970
v 1.585087 -0.463465 -0.555779
v 0.289211 -0.843800 -0.963243
v 0.389550 -0.307533 -0.914052
v 0.704950 -0.934619 -0.182279
v 0.805289 -0.398352 -0.133088
v 0.821902 -0.897571 0.346093
v 0.894389 -0.532768 0.381630
v 1.122242 -0.963181 0.910280
v 1.194729 -0.598377 0.945817
v 0.258558 -0.850532 0.651455
v 0.331045 -0.485728 0.686992
v 0.558898 -0.916141 1.215641
v 0.631385 -0.551338 1.251178
vt 0.250000 0.718750
vt 0.250000 0.968750
vt 0.000000 0.968750
vt -0.000000 0.718750
vt 0.250000 0.718750
vt 0.250000 0.968750
vt 0.000000 0.968750
vt 0.000000 0.718750
vt 0.250000 0.718750
vt 0.250000 0.968750
vt 0.000000 0.968750
vt -0.000000 0.718750
vt 0.250000 0.718750
vt 0.250000 0.968750
vt 0.000000 0.968750
vt 0.000000 0.718750
vt 0.250000 0.968750
vt 0.000000 0.968750
vt -0.000000 0.718750
vt 0.250000 0.718750
vt 0.218750 0.750000
vt 0.218750 0.875000
vt 0.093750 0.875000
vt 0.093750 0.750000
vt 0.218750 0.750000
vt 0.218750 0.875000
vt 0.093750 0.875000
vt 0.093750 0.750000
vt 0.218750 0.750000
vt 0.218750 0.875000
vt 0.093750 0.875000
vt 0.093750 0.750000
vt 0.218750 0.750000
vt 0.218750 0.875000
vt 0.093750 0.875000
vt 0.093750 0.750000
vt 0.218750 0.875000
vt 0.093750 0.875000
vt 0.093750 0.750000
vt 0.218750 0.750000
vt 0.250000 0.718750
vt 0.250000 0.968750
vt 0.000000 0.968750
vt -0.000000 0.718750
vt 0.250000 0.718750
vt 0.250000 0.968750
vt 0.000000 0.968750
vt 0.000000 0.718750
vt 0.250000 0.718750
vt 0.250000 0.968750
vt 0.000000 0.968750
vt -0.000000 0.718750
vt 0.250000 0.718750
vt 0.250000 0.968750
vt 0.000000 0.968750
vt 0.000000 0.718750
vt 0.250000 0.968750
vt 0.000000 0.968750
vt -0.000000 0.718750
vt 0.250000 0.718750
vt 0.218750 0.750000
vt 0.218750 0.875000
vt 0.093750 0.875000
vt 0.093750 0.750000
vt 0.218750 0.750000
vt 0.218750 0.875000
vt 0.093750 0.875000
vt 0.093750 0.750000
vt 0.218750 0.750000
vt 0.218750 0.875000
vt 0.093750 0.875000
vt 0.093750 0.750000
vt 0.218750 0.750000
vt 0.218750 0.875000
vt 0.093750 0.875000
vt 0.093750 0.750000
vt 0.218750 0.875000
vt 0.093750 0.875000
vt 0.093750 0.750000
vt 0.218750 0.750000
vt 0.218750 0.750000
vt 0.218750 0.875000
vt 0.093750 0.875000
vt 0.093750 0.750000
vt 0.218750 0.750000
vt 0.218750 0.875000
vt 0.093750 0.875000
vt 0.093750 0.750000
vt 0.218750 0.750000
vt 0.218750 0.875000
vt 0.093750 0.875000
vt 0.093750 0.750000
vt 0.218750 0.750000
vt 0.218750 0.875000
vt 0.093750 0.875000
vt 0.093750 0.750000
vt 0.218750 0.875000
vt 0.093750 0.875000
vt 0.093750 0.750000
vt 0.218750 0.750000
vt 1.000000 0.500000
vt 1.000000 1.000000
vt 0.500000 1.000000
vt 0.500000 0.500000
vt 1.000000 0.500000
vt 1.000000 1.000000
vt 0.500000 1.000000
vt 0.500000 0.500000
vt 0.437500 0.968750
vt 0.281250 0.968750
vt 0.281250 0.781250
vt 0.437500 0.781250
vt 0.437500 0.968750
vt 0.281250 0.968750
vt 0.281250 0.781250
vt 0.437500 0.781250
vt 0.437500 0.968750
vt 0.281250 0.968750
vt 0.281250 0.781250
vt 0.437500 0.781250
vt 0.437500 0.968750
vt 0.281250 0.968750
vt 0.281250 0.781250
vt 0.437500 0.781250
vt 0.437500 0.968750
vt 0.281250 0.968750
vt 0.281250 0.781250
vt 0.437500 0.781250
vt 0.437500 0.968750
vt 0.281250 0.968750
vt 0.281250 0.781250
vt 0.437500 0.781250
vt 0.437500 0.968750
vt 0.281250 0.968750
vt 0.281250 0.781250
vt 0.437500 0.781250
vt 0.437500 0.968750
vt 0.281250 0.968750
vt 0.281250 0.781250
vt 0.437500 0.781250
vt 0.437500 0.968750
vt 0.281250 0.968750
vt 0.281250 0.781250
vt 0.437500 0.781250
vt 0.250000 0.562500
vt 0.250000 0.687500
vt 0.000000 0.687500
vt 0.000000 0.562500
vt 0.250000 0.562500
vt 0.250000 0.687500
vt 0.000000 0.687500
vt 0.000000 0.562500
vt 0.250000 0.562500
vt 0.250000 0.687500
vt 0.000000 0.687500
vt 0.000000 0.562500
vt 0.250000 0.562500
vt 0.250000 0.687500
vt 0.000000 0.687500
vt 0.000000 0.562500
vt 0.250000 0.562500
vt 0.250000 0.687500
vt 0.000000 0.687500
vt 0.000000 0.562500
vt 0.250000 0.562500
vt 0.250000 0.687500
vt 0.000000 0.687500
vt 0.000000 0.562500
vt 0.250000 0.562500
vt 0.250000 0.687500
vt 0.000000 0.687500
vt 0.000000 0.562500
vt 0.250000 0.562500
vt 0.250000 0.687500
vt 0.000000 0.687500
vt 0.000000 0.562500
vt 0.218750 0.593750
vt 0.218750 0.656250
vt 0.093750 0.656250
vt 0.093750 0.593750
vt 0.218750 0.593750
vt 0.218750 0.656250
vt 0.093750 0.656250
vt 0.093750 0.593750
vt 0.218750 0.593750
vt 0.218750 0.656250
vt 0.093750 0.656250
vt 0.093750 0.593750
vt 0.218750 0.593750
vt 0.218750 0.656250
vt 0.093750 0.656250
vt 0.093750 0.593750
vn -0.8782 -0.0011 -0.4783
vn 0.4783 0.0018 -0.8782
vn 0.8782 0.0011 0.4783
vn -0.4783 -0.0018 0.8782
vn 0.0018 -1.0000 -0.0011
vn -0.0018 1.0000 0.0011
vn 0.8768 -0.0732 -0.4753
vn 0.4675 -0.1021 0.8781
vn -0.8768 0.0732 0.4753
vn -0.4675 0.1021 -0.8781
vn -0.1128 -0.9921 -0.0553
vn 0.1128 0.9921 0.0553
vn 0.0000 1.0000 0.0000
vn 0.1234 0.1026 0.9870
vn 0.2542 0.1026 -0.9617
vn 0.8702 0.1026 0.4819
vn 0.1880 0.1026 0.9768
vn 0.8950 0.1026 -0.4341
vn 0.6204 0.1026 0.7776
vn -0.6138 0.7894 -0.0094
vn -0.8782 -0.0025 -0.4783
vn 0.4783 0.0042 -0.8782
vn 0.8782 0.0025 0.4783
vn -0.4783 -0.0042 0.8782
vn 0.8706 -0.1191 -0.4773
vn 0.4592 -0.1660 0.8727
vn -0.8706 0.1191 0.4773
vn -0.4592 0.1660 -0.8727
vn 0.8695 -0.1262 -0.4775
vn 0.4577 -0.1759 0.8715
vn -0.8695 0.1262 0.4775
vn -0.4577 0.1759 -0.8715
usemtl None
s off
f 1/1/1 2/2/1 4/3/1 3/4/1
f 3/5/2 4/6/2 8/7/2 7/8/2
f 7/9/3 8/10/3 6/11/3 5/12/3
f 5/13/4 6/14/4 2/15/4 1/16/4
f 3/4/5 7/9/5 5/17/5 1/18/5
f 8/10/6 4/3/6 2/19/6 6/20/6
f 9/21/1 10/22/1 12/23/1 11/24/1
f 11/25/2 12/26/2 16/27/2 15/28/2
f 15/29/3 16/30/3 14/31/3 13/32/3
f 13/33/4 14/34/4 10/35/4 9/36/4
f 11/24/5 15/29/5 13/37/5 9/38/5
f 16/30/6 12/23/6 10/39/6 14/40/6
f 17/41/7 18/42/7 20/43/7 19/44/7
f 19/45/8 20/46/8 24/47/8 23/48/8
f 23/49/9 24/50/9 22/51/9 21/52/9
f 21/53/10 22/54/10 18/55/10 17/56/10
f 19/44/11 23/49/11 21/57/11 17/58/11
f 24/50/12 20/43/12 18/59/12 22/60/12
f 25/61/7 26/62/7 28/63/7 27/64/7
f 27/65/8 28/66/8 32/67/8 31/68/8
f 31/69/9 32/70/9 30/71/9 29/72/9
f 29/73/10 30/74/10 26/75/10 25/76/10
f 27/64/11 31/69/11 29/77/11 25/78/11
f 32/70/12 28/63/12 26/79/12 30/80/12
f 33/81/7 34/82/7 36/83/7 35/84/7
f 35/85/8 36/86/8 40/87/8 39/88/8
f 39/89/9 40/90/9 38/91/9 37/92/9
f 37/93/10 38/94/10 34/95/10 33/96/10
f 35/84/11 39/89/11 37/97/11 33/98/11
f 40/90/12 36/83/12 34/99/12 38/100/12
f 44/101/13 42/102/13 41/103/13 43/104/13
f 48/105/13 46/106/13 45/107/13 47/108/13
f 52/109/14 50/110/14 49/111/14 51/112/14
f 56/113/15 54/114/15 53/115/15 55/116/15
f 60/117/16 58/118/16 57/119/16 59/120/16
f 64/121/17 62/122/17 61/123/17 63/124/17
f 68/125/18 66/126/18 65/127/18 67/128/18
f 72/129/18 70/130/18 69/131/18 71/132/18
f 76/133/18 74/134/18 73/135/18 75/136/18
f 80/137/19 78/138/19 77/139/19 79/140/19
f 84/141/20 82/142/20 81/143/20 83/144/20
f 85/145/21 86/146/21 88/147/21 87/148/21
f 87/149/22 88/150/22 92/151/22 91/152/22
f 91/153/23 92/154/23 90/155/23 89/156/23
f 89/157/24 90/158/24 86/159/24 85/160/24
f 93/161/25 94/162/25 96/163/25 95/164/25
f 95/165/26 96/166/26 100/167/26 99/168/26
f 99/169/27 100/170/27 98/171/27 97/172/27
f 97/173/28 98/174/28 94/175/28 93/176/28
f 101/177/29 102/178/29 104/179/29 103/180/29
f 103/181/30 104/182/30 108/183/30 107/184/30
f 107/185/31 108/186/31 106/187/31 105/188/31
f 105/189/32 106/190/32 102/191/32 101/192/32
