# Blender v2.79 (sub 0) OBJ File: 'tomato.blend'
# www.blender.org
mtllib tomato.mtl
o Cube
v -0.079954 -1.009789 0.074145
v -0.079954 1.504279 0.074145
v -0.079954 -1.009789 -0.061320
v -0.079954 1.504279 -0.061320
v 0.055510 -1.009789 0.074145
v 0.055510 1.504279 0.074145
v 0.055510 -1.009789 -0.061320
v 0.055510 1.504279 -0.061320
v 0.196911 0.765352 0.283117
v 0.196911 0.989098 0.283117
v 0.196911 0.765352 0.059371
v 0.196911 0.989098 0.059371
v 0.420657 0.765352 0.283117
v 0.420657 0.989098 0.283117
v 0.420657 0.765352 0.059371
v 0.420657 0.989098 0.059371
v -0.010860 -1.206918 0.863310
v -0.010860 1.786104 0.863310
v -0.010860 -1.206918 -0.850485
v -0.010860 1.786104 -0.850485
v 0.660117 -1.206918 -0.526563
v 0.660117 1.786104 -0.526563
v -0.681837 -1.206918 0.539388
v -0.681837 1.786104 0.539388
v 0.754814 -1.206918 0.391141
v 0.754814 1.786104 0.391141
v -0.776535 -1.206918 -0.378316
v -0.776535 1.786104 -0.378316
v 0.136914 0.800380 0.151291
v 0.136914 0.954070 0.151291
v 0.136914 0.800380 -0.002399
v 0.136914 0.954070 -0.002399
v 0.290604 0.800380 0.151291
v 0.290604 0.954070 0.151291
v 0.290604 0.800380 -0.002399
v 0.290604 0.954070 -0.002399
v 0.290743 0.708139 0.290103
v 0.290743 0.861830 0.290103
v 0.290743 0.708139 0.136412
v 0.290743 0.861830 0.136412
v 0.444434 0.708139 0.290103
v 0.444434 0.861830 0.290103
v 0.444434 0.708139 0.136412
v 0.444434 0.861830 0.136412
v 0.233658 0.910621 0.334054
v 0.233658 1.064312 0.334054
v 0.233658 0.910621 0.180363
v 0.233658 1.064312 0.180363
v 0.387348 0.910621 0.334054
v 0.387348 1.064312 0.334054
v 0.387348 0.910621 0.180363
v 0.387348 1.064312 0.180363
v 0.118918 0.128495 -0.420187
v 0.089630 -0.062181 -0.306844
v -0.097712 0.128495 -0.476166
v -0.127000 -0.062181 -0.362822
v 0.071214 0.245562 -0.235575
v 0.041925 0.054885 -0.122231
v -0.145416 0.245562 -0.291553
v -0.174705 0.054885 -0.178209
v -0.000508 0.067253 -0.484928
v -0.020626 -0.063722 -0.407073
v -0.149311 0.067253 -0.523380
v -0.169429 -0.063722 -0.445524
v -0.033276 0.147666 -0.358118
v -0.053394 0.016691 -0.280263
v -0.182079 0.147666 -0.396569
v -0.202197 0.016691 -0.318714
v 0.113165 0.226347 -0.370002
v 0.093047 0.095371 -0.292146
v -0.035638 0.226347 -0.408453
v -0.055756 0.095371 -0.330597
v 0.080397 0.306759 -0.243191
v 0.060279 0.175784 -0.165336
v -0.068406 0.306759 -0.281643
v -0.088524 0.175784 -0.203787
v 0.141385 0.023923 -0.303535
v 0.121267 -0.107053 -0.225680
v -0.007418 0.023923 -0.341986
v -0.027536 -0.107053 -0.264131
v 0.108616 0.104335 -0.176725
v 0.088498 -0.026640 -0.098869
v -0.040186 0.104335 -0.215176
v -0.060304 -0.026640 -0.137321
v -0.304269 0.772301 -0.132442
v -0.241843 0.848918 -0.250143
v -0.340168 0.905531 -0.064755
v -0.277743 0.982149 -0.182456
v -0.440045 0.772301 -0.204454
v -0.377619 0.848918 -0.322155
v -0.475944 0.905531 -0.136767
v -0.413519 0.982149 -0.254468
v -0.309202 -0.522333 0.284321
v -0.233083 -0.539915 0.416675
v -0.352976 -0.381688 0.328179
v -0.276857 -0.399270 0.460533
v -0.183064 -0.462914 0.219671
v -0.106946 -0.480496 0.352025
v -0.226838 -0.322269 0.263529
v -0.150720 -0.339851 0.395883
v 0.266709 1.172099 -0.286360
v 0.267520 1.315177 -0.342473
v 0.326606 1.223481 -0.154477
v 0.327417 1.366560 -0.210590
v 0.125173 1.194664 -0.230870
v 0.125984 1.337742 -0.286983
v 0.185069 1.246046 -0.098988
v 0.185881 1.389125 -0.155101
v 0.266709 -0.817414 -0.018811
v 0.267520 -0.674336 -0.074924
v 0.326606 -0.766032 0.113072
v 0.327417 -0.622953 0.056959
v 0.125173 -0.794849 0.036679
v 0.125984 -0.651771 -0.019434
v 0.185069 -0.743467 0.168561
v 0.185881 -0.600388 0.112448
vt 0.062500 0.031250
vt 0.062500 0.437500
vt 0.093750 0.437500
vt 0.093750 0.031250
vt 0.062500 0.031250
vt 0.062500 0.437500
vt 0.093750 0.437500
vt 0.093750 0.031250
vt 0.062500 0.031250
vt 0.062500 0.437500
vt 0.093750 0.437500
vt 0.093750 0.031250
vt 0.062500 0.031250
vt 0.062500 0.437500
vt 0.093750 0.437500
vt 0.093750 0.031250
vt 0.062500 0.062500
vt 0.093750 0.062500
vt 0.062500 0.406250
vt 0.093750 0.406250
vt 0.093750 0.531250
vt 0.093750 0.468750
vt 0.031250 0.468750
vt 0.031250 0.531250
vt 0.093750 0.468750
vt 0.093750 0.531250
vt 0.093750 0.468750
vt 0.093750 0.531250
vt 0.031250 0.531250
vt 0.031250 0.468750
vt 0.093750 0.531250
vt 0.093750 0.468750
vt 0.093750 0.468750
vt 0.031250 0.468750
vt 0.031250 0.468750
vt 0.093750 0.468750
vt 0.250000 0.000000
vt 0.250000 0.406250
vt 0.468750 0.406250
vt 0.468750 0.000000
vt 0.250000 0.000000
vt 0.250000 0.406250
vt 0.468750 0.406250
vt 0.468750 0.000000
vt 0.250000 0.000000
vt 0.250000 0.406250
vt 0.468750 0.406250
vt 0.468750 0.000000
vt 0.156250 0.500000
vt 0.156250 0.468750
vt 0.125000 0.468750
vt 0.125000 0.500000
vt 0.156250 0.468750
vt 0.156250 0.500000
vt 0.156250 0.468750
vt 0.156250 0.500000
vt 0.125000 0.500000
vt 0.125000 0.468750
vt 0.156250 0.500000
vt 0.156250 0.468750
vt 0.156250 0.468750
vt 0.125000 0.468750
vt 0.125000 0.468750
vt 0.156250 0.468750
vt 0.156250 0.500000
vt 0.156250 0.468750
vt 0.125000 0.468750
vt 0.125000 0.500000
vt 0.156250 0.468750
vt 0.156250 0.500000
vt 0.156250 0.468750
vt 0.156250 0.500000
vt 0.125000 0.500000
vt 0.125000 0.468750
vt 0.156250 0.500000
vt 0.156250 0.468750
vt 0.156250 0.468750
vt 0.125000 0.468750
vt 0.125000 0.468750
vt 0.156250 0.468750
vt 0.156250 0.500000
vt 0.156250 0.468750
vt 0.125000 0.468750
vt 0.125000 0.500000
vt 0.156250 0.468750
vt 0.156250 0.500000
vt 0.156250 0.468750
vt 0.156250 0.500000
vt 0.125000 0.500000
vt 0.125000 0.468750
vt 0.156250 0.500000
vt 0.156250 0.468750
vt 0.156250 0.468750
vt 0.125000 0.468750
vt 0.125000 0.468750
vt 0.156250 0.468750
vt 0.093750 0.531250
vt 0.093750 0.468750
vt 0.031250 0.468750
vt 0.031250 0.531250
vt 0.093750 0.468750
vt 0.093750 0.531250
vt 0.093750 0.468750
vt 0.093750 0.531250
vt 0.031250 0.531250
vt 0.031250 0.468750
vt 0.093750 0.531250
vt 0.093750 0.468750
vt 0.093750 0.468750
vt 0.031250 0.468750
vt 0.031250 0.468750
vt 0.093750 0.468750
vt 0.156250 0.500000
vt 0.156250 0.468750
vt 0.125000 0.468750
vt 0.125000 0.500000
vt 0.156250 0.468750
vt 0.156250 0.500000
vt 0.156250 0.468750
vt 0.156250 0.500000
vt 0.125000 0.500000
vt 0.125000 0.468750
vt 0.156250 0.500000
vt 0.156250 0.468750
vt 0.156250 0.468750
vt 0.125000 0.468750
vt 0.125000 0.468750
vt 0.156250 0.468750
vt 0.156250 0.500000
vt 0.156250 0.468750
vt 0.125000 0.468750
vt 0.125000 0.500000
vt 0.156250 0.468750
vt 0.156250 0.500000
vt 0.156250 0.468750
vt 0.156250 0.500000
vt 0.125000 0.500000
vt 0.125000 0.468750
vt 0.156250 0.500000
vt 0.156250 0.468750
vt 0.156250 0.468750
vt 0.125000 0.468750
vt 0.125000 0.468750
vt 0.156250 0.468750
vt 0.156250 0.500000
vt 0.156250 0.468750
vt 0.125000 0.468750
vt 0.125000 0.500000
vt 0.156250 0.468750
vt 0.156250 0.500000
vt 0.156250 0.468750
vt 0.156250 0.500000
vt 0.125000 0.500000
vt 0.125000 0.468750
vt 0.156250 0.500000
vt 0.156250 0.468750
vt 0.156250 0.468750
vt 0.125000 0.468750
vt 0.125000 0.468750
vt 0.156250 0.468750
vt 0.156250 0.500000
vt 0.156250 0.468750
vt 0.125000 0.468750
vt 0.125000 0.500000
vt 0.156250 0.468750
vt 0.156250 0.500000
vt 0.156250 0.468750
vt 0.156250 0.500000
vt 0.125000 0.500000
vt 0.125000 0.468750
vt 0.156250 0.500000
vt 0.156250 0.468750
vt 0.156250 0.468750
vt 0.125000 0.468750
vt 0.125000 0.468750
vt 0.156250 0.468750
vt 0.156250 0.500000
vt 0.156250 0.468750
vt 0.125000 0.468750
vt 0.125000 0.500000
vt 0.156250 0.468750
vt 0.156250 0.500000
vt 0.156250 0.468750
vt 0.156250 0.500000
vt 0.125000 0.500000
vt 0.125000 0.468750
vt 0.156250 0.500000
vt 0.156250 0.468750
vt 0.156250 0.468750
vt 0.125000 0.468750
vt 0.125000 0.468750
vt 0.156250 0.468750
vt 0.156250 0.500000
vt 0.156250 0.468750
vt 0.125000 0.468750
vt 0.125000 0.500000
vt 0.156250 0.468750
vt 0.156250 0.500000
vt 0.156250 0.468750
vt 0.156250 0.500000
vt 0.125000 0.500000
vt 0.125000 0.468750
vt 0.156250 0.500000
vt 0.156250 0.468750
vt 0.156250 0.468750
vt 0.125000 0.468750
vt 0.125000 0.468750
vt 0.156250 0.468750
vt 0.156250 0.500000
vt 0.156250 0.468750
vt 0.125000 0.468750
vt 0.125000 0.500000
vt 0.156250 0.468750
vt 0.156250 0.500000
vt 0.156250 0.468750
vt 0.156250 0.500000
vt 0.125000 0.500000
vt 0.125000 0.468750
vt 0.156250 0.500000
vt 0.156250 0.468750
vt 0.156250 0.468750
vt 0.125000 0.468750
vt 0.125000 0.468750
vt 0.156250 0.468750
vn -1.0000 0.0000 0.0000
vn 0.0000 0.0000 -1.0000
vn 1.0000 0.0000 0.0000
vn 0.0000 0.0000 1.0000
vn 0.0000 -1.0000 0.0000
vn 0.0000 1.0000 0.0000
vn -0.6220 0.0000 -0.7830
vn 0.4490 0.0000 -0.8935
vn 0.2132 -0.5232 -0.8251
vn -0.9682 -0.0000 -0.2502
vn -0.2132 0.5232 0.8251
vn 0.9682 -0.0000 0.2502
vn 0.1309 0.8522 -0.5066
vn -0.1309 -0.8522 0.5066
vn 0.8834 0.0000 0.4686
vn -0.2336 0.8669 0.4404
vn -0.8834 0.0000 -0.4686
vn 0.2336 -0.8669 -0.4404
vn -0.4062 -0.4985 0.7658
vn 0.4062 0.4985 -0.7658
vn -0.8207 -0.3866 0.4206
vn -0.2848 0.9151 0.2854
vn 0.8207 0.3866 -0.4207
vn 0.2848 -0.9151 -0.2854
vn -0.4953 0.1144 -0.8612
vn 0.4953 -0.1144 0.8612
vn 0.9209 -0.1468 -0.3610
vn 0.3897 0.3343 0.8581
vn -0.9209 0.1468 0.3610
vn -0.3897 -0.3343 -0.8581
vn -0.0053 -0.9310 0.3651
vn 0.0053 0.9310 -0.3651
usemtl None
s off
f 1/1/1 2/2/1 4/3/1 3/4/1
f 3/5/2 4/6/2 8/7/2 7/8/2
f 7/9/3 8/10/3 6/11/3 5/12/3
f 5/13/4 6/14/4 2/15/4 1/16/4
f 3/5/5 7/17/5 5/18/5 1/16/5
f 8/19/6 4/6/6 2/15/6 6/20/6
f 9/21/1 10/22/1 12/23/1 11/24/1
f 11/24/2 12/23/2 16/25/2 15/26/2
f 15/27/3 16/28/3 14/29/3 13/30/3
f 13/30/4 14/29/4 10/31/4 9/32/4
f 11/24/5 15/26/5 13/33/5 9/34/5
f 16/35/6 12/36/6 10/31/6 14/29/6
f 19/37/3 20/38/3 18/39/3 17/40/3
f 23/41/7 24/42/7 22/43/7 21/44/7
f 27/45/8 28/46/8 26/47/8 25/48/8
f 29/49/1 30/50/1 32/51/1 31/52/1
f 31/52/2 32/51/2 36/53/2 35/54/2
f 35/55/3 36/56/3 34/57/3 33/58/3
f 33/58/4 34/57/4 30/59/4 29/60/4
f 31/52/5 35/54/5 33/61/5 29/62/5
f 36/63/6 32/64/6 30/59/6 34/57/6
f 37/65/1 38/66/1 40/67/1 39/68/1
f 39/68/2 40/67/2 44/69/2 43/70/2
f 43/71/3 44/72/3 42/73/3 41/74/3
f 41/74/4 42/73/4 38/75/4 37/76/4
f 39/68/5 43/70/5 41/77/5 37/78/5
f 44/79/6 40/80/6 38/75/6 42/73/6
f 45/81/1 46/82/1 48/83/1 47/84/1
f 47/84/2 48/83/2 52/85/2 51/86/2
f 51/87/3 52/88/3 50/89/3 49/90/3
f 49/90/4 50/89/4 46/91/4 45/92/4
f 47/84/5 51/86/5 49/93/5 45/94/5
f 52/95/6 48/96/6 46/91/6 50/89/6
f 53/97/9 54/98/9 56/99/9 55/100/9
f 55/100/10 56/99/10 60/101/10 59/102/10
f 59/103/11 60/104/11 58/105/11 57/106/11
f 57/106/12 58/105/12 54/107/12 53/108/12
f 55/100/13 59/102/13 57/109/13 53/110/13
f 60/111/14 56/112/14 54/107/14 58/105/14
f 61/113/9 62/114/9 64/115/9 63/116/9
f 63/116/10 64/115/10 68/117/10 67/118/10
f 67/119/11 68/120/11 66/121/11 65/122/11
f 65/122/12 66/121/12 62/123/12 61/124/12
f 63/116/13 67/118/13 65/125/13 61/126/13
f 68/127/14 64/128/14 62/123/14 66/121/14
f 69/129/9 70/130/9 72/131/9 71/132/9
f 71/132/10 72/131/10 76/133/10 75/134/10
f 75/135/11 76/136/11 74/137/11 73/138/11
f 73/138/12 74/137/12 70/139/12 69/140/12
f 71/132/13 75/134/13 73/141/13 69/142/13
f 76/143/14 72/144/14 70/139/14 74/137/14
f 77/145/9 78/146/9 80/147/9 79/148/9
f 79/148/10 80/147/10 84/149/10 83/150/10
f 83/151/11 84/152/11 82/153/11 81/154/11
f 81/154/12 82/153/12 78/155/12 77/156/12
f 79/148/13 83/150/13 81/157/13 77/158/13
f 84/159/14 80/160/14 78/155/14 82/153/14
f 85/161/15 86/162/15 88/163/15 87/164/15
f 87/164/16 88/163/16 92/165/16 91/166/16
f 91/167/17 92/168/17 90/169/17 89/170/17
f 89/170/18 90/169/18 86/171/18 85/172/18
f 87/164/19 91/166/19 89/173/19 85/174/19
f 92/175/20 88/176/20 86/171/20 90/169/20
f 93/177/21 94/178/21 96/179/21 95/180/21
f 95/180/22 96/179/22 100/181/22 99/182/22
f 99/183/23 100/184/23 98/185/23 97/186/23
f 97/186/24 98/185/24 94/187/24 93/188/24
f 95/180/25 99/182/25 97/189/25 93/190/25
f 100/191/26 96/192/26 94/187/26 98/185/26
f 101/193/27 102/194/27 104/195/27 103/196/27
f 103/196/28 104/195/28 108/197/28 107/198/28
f 107/199/29 108/200/29 106/201/29 105/202/29
f 105/202/30 106/201/30 102/203/30 101/204/30
f 103/196/31 107/198/31 105/205/31 101/206/31
f 108/207/32 104/208/32 102/203/32 106/201/32
f 109/209/27 110/210/27 112/211/27 111/212/27
f 111/212/28 112/211/28 116/213/28 115/214/28
f 115/215/29 116/216/29 114/217/29 113/218/29
f 113/218/30 114/217/30 110/219/30 109/220/30
f 111/212/31 115/214/31 113/221/31 109/222/31
f 116/223/32 112/224/32 110/219/32 114/217/32
