# Blender v2.79 (sub 0) OBJ File: 'ogre.blend'
# www.blender.org
mtllib ogre_baby.mtl
o Cube.011_Cube.012
v -0.562004 -0.904687 -0.073268
v -0.562004 -0.698364 -0.073268
v -0.085186 -0.904687 -0.073249
v -0.085186 -0.698364 -0.073249
v -0.561981 -0.904687 -0.666055
v -0.561981 -0.698364 -0.666055
v -0.085163 -0.904687 -0.666036
v -0.085163 -0.698364 -0.666036
vt 0.656250 0.437500
vt 0.593750 0.437500
vt 0.593750 0.375000
vt 0.656250 0.375000
vt 0.687500 0.375000
vt 0.687500 0.187500
vt 0.656250 0.187500
vt 0.656250 0.375000
vt 0.656250 0.125000
vt 0.593750 0.125000
vt 0.593750 0.187500
vt 0.562500 0.187500
vt 0.562500 0.375000
vt 0.593750 0.375000
vt 0.718750 0.656250
vt 0.656250 0.656250
vt 0.656250 0.781250
vt 0.718750 0.781250
vn -0.0000 0.0000 1.0000
vn 1.0000 0.0000 0.0000
vn 0.0000 0.0000 -1.0000
vn -1.0000 0.0000 -0.0000
vn 0.0000 -1.0000 0.0000
vn 0.0000 1.0000 0.0000
usemtl None
s off
f 1/1/1 3/2/1 4/3/1 2/4/1
f 3/5/2 7/6/2 8/7/2 4/8/2
f 7/9/3 5/10/3 6/11/3 8/7/3
f 5/12/4 1/13/4 2/14/4 6/11/4
f 3/15/5 1/16/5 5/17/5 7/18/5
f 8/7/6 6/11/6 2/14/6 4/8/6
o Cube.010_Cube.011
v 0.408239 -0.904818 -0.073161
v 0.408239 -0.698303 -0.073161
v -0.069023 -0.904818 -0.073180
v -0.069023 -0.698303 -0.073180
v 0.408262 -0.904818 -0.666500
v 0.408262 -0.698303 -0.666500
v -0.069000 -0.904818 -0.666518
v -0.069000 -0.698303 -0.666518
vt 0.656250 0.437500
vt 0.656250 0.375000
vt 0.593750 0.375000
vt 0.593750 0.437500
vt 0.687500 0.375000
vt 0.656250 0.375000
vt 0.656250 0.187500
vt 0.687500 0.187500
vt 0.656250 0.125000
vt 0.593750 0.187500
vt 0.593750 0.125000
vt 0.562500 0.187500
vt 0.593750 0.375000
vt 0.562500 0.375000
vt 0.718750 0.656250
vt 0.718750 0.781250
vt 0.656250 0.781250
vt 0.656250 0.656250
vn -0.0000 0.0000 1.0000
vn -1.0000 0.0000 -0.0000
vn 0.0000 0.0000 -1.0000
vn 1.0000 0.0000 0.0000
vn 0.0000 -1.0000 0.0000
vn 0.0000 1.0000 0.0000
usemtl None
s off
f 9/19/7 10/20/7 12/21/7 11/22/7
f 11/23/8 12/24/8 16/25/8 15/26/8
f 15/27/9 16/25/9 14/28/9 13/29/9
f 13/30/10 14/28/10 10/31/10 9/32/10
f 11/33/11 15/34/11 13/35/11 9/36/11
f 16/25/12 12/24/12 10/31/12 14/28/12
o Cube.009_Cube.010
v 0.398255 -0.907067 0.199434
v 0.398255 -0.338525 0.199434
v -0.059061 -0.907067 0.199416
v -0.059061 -0.338525 0.199416
v 0.398278 -0.907067 -0.369108
v 0.398278 -0.338525 -0.369108
v -0.059039 -0.907067 -0.369126
v -0.059039 -0.338525 -0.369126
vt 0.718750 0.437500
vt 0.718750 0.656250
vt 0.656250 0.656250
vt 0.656250 0.437500
vt 0.781250 0.437500
vt 0.781250 0.656250
vt 0.718750 0.656250
vt 0.718750 0.437500
vt 0.656250 0.656250
vt 0.656250 0.437500
vt 0.593750 0.656250
vt 0.593750 0.437500
vt 0.718750 0.656250
vt 0.718750 0.781250
vt 0.656250 0.781250
vt 0.656250 0.656250
vt 0.718750 0.781250
vt 0.656250 0.781250
vn -0.0000 0.0000 1.0000
vn -1.0000 0.0000 -0.0000
vn 0.0000 0.0000 -1.0000
vn 1.0000 0.0000 0.0000
vn 0.0000 -1.0000 -0.0000
vn 0.0000 1.0000 -0.0000
usemtl None
s off
f 17/37/13 18/38/13 20/39/13 19/40/13
f 19/41/14 20/42/14 24/43/14 23/44/14
f 23/44/15 24/43/15 22/45/15 21/46/15
f 21/46/16 22/45/16 18/47/16 17/48/16
f 19/49/17 23/50/17 21/51/17 17/52/17
f 24/43/18 20/53/18 18/54/18 22/45/18
o Cube.008_Cube.009
v -0.097303 -0.907067 0.199414
v -0.097303 -0.338525 0.199414
v -0.554620 -0.907067 0.199396
v -0.554620 -0.338525 0.199396
v -0.097281 -0.907067 -0.369128
v -0.097281 -0.338525 -0.369128
v -0.554597 -0.907067 -0.369146
v -0.554597 -0.338525 -0.369146
vt 0.718750 0.437500
vt 0.718750 0.656250
vt 0.656250 0.656250
vt 0.656250 0.437500
vt 0.781250 0.437500
vt 0.781250 0.656250
vt 0.718750 0.656250
vt 0.718750 0.437500
vt 0.656250 0.656250
vt 0.656250 0.437500
vt 0.593750 0.656250
vt 0.593750 0.437500
vt 0.718750 0.656250
vt 0.718750 0.781250
vt 0.656250 0.781250
vt 0.656250 0.656250
vt 0.718750 0.781250
vt 0.656250 0.781250
vn -0.0000 0.0000 1.0000
vn -1.0000 0.0000 -0.0000
vn 0.0000 0.0000 -1.0000
vn 1.0000 0.0000 0.0000
vn 0.0000 -1.0000 -0.0000
vn 0.0000 1.0000 -0.0000
usemtl None
s off
f 25/55/19 26/56/19 28/57/19 27/58/19
f 27/59/20 28/60/20 32/61/20 31/62/20
f 31/62/21 32/61/21 30/63/21 29/64/21
f 29/64/22 30/63/22 26/65/22 25/66/22
f 27/67/23 31/68/23 29/69/23 25/70/23
f 32/61/24 28/71/24 26/72/24 30/63/24
o Cube.007_Cube.008
v -0.097303 -0.339879 0.199414
v -0.097303 0.228663 0.199414
v -0.554620 -0.339879 0.199396
v -0.554620 0.228663 0.199396
v -0.097281 -0.339879 -0.369128
v -0.097281 0.228663 -0.369128
v -0.554597 -0.339879 -0.369146
v -0.554597 0.228663 -0.369146
vt 0.718750 0.437500
vt 0.718750 0.656250
vt 0.656250 0.656250
vt 0.656250 0.437500
vt 0.781250 0.781250
vt 0.781250 1.000000
vt 0.718750 1.000000
vt 0.718750 0.781250
vt 0.656250 1.000000
vt 0.656250 0.781250
vt 0.593750 1.000000
vt 0.593750 0.781250
vt 0.718750 0.656250
vt 0.656250 0.656250
vt 0.718750 0.656250
vt 0.718750 0.781250
vt 0.656250 0.781250
vt 0.656250 0.656250
vn -0.0000 0.0000 1.0000
vn -1.0000 0.0000 -0.0000
vn 0.0000 0.0000 -1.0000
vn 1.0000 0.0000 0.0000
vn 0.0000 -1.0000 0.0000
vn 0.0000 1.0000 0.0000
usemtl None
s off
f 33/73/25 34/74/25 36/75/25 35/76/25
f 35/77/26 36/78/26 40/79/26 39/80/26
f 39/80/27 40/79/27 38/81/27 37/82/27
f 37/82/28 38/81/28 34/83/28 33/84/28
f 35/85/29 39/80/29 37/82/29 33/86/29
f 40/87/30 36/88/30 34/89/30 38/90/30
o Cube.006_Cube.007
v 0.398255 -0.339879 0.199434
v 0.398255 0.228663 0.199434
v -0.059061 -0.339879 0.199416
v -0.059061 0.228663 0.199416
v 0.398278 -0.339879 -0.369108
v 0.398278 0.228663 -0.369108
v -0.059039 -0.339879 -0.369126
v -0.059039 0.228663 -0.369126
vt 0.718750 0.437500
vt 0.718750 0.656250
vt 0.656250 0.656250
vt 0.656250 0.437500
vt 0.781250 0.781250
vt 0.781250 1.000000
vt 0.718750 1.000000
vt 0.718750 0.781250
vt 0.656250 1.000000
vt 0.656250 0.781250
vt 0.593750 1.000000
vt 0.593750 0.781250
vt 0.718750 0.656250
vt 0.656250 0.656250
vt 0.718750 0.656250
vt 0.718750 0.781250
vt 0.656250 0.781250
vt 0.656250 0.656250
vn -0.0000 0.0000 1.0000
vn -1.0000 0.0000 -0.0000
vn 0.0000 0.0000 -1.0000
vn 1.0000 0.0000 0.0000
vn 0.0000 -1.0000 0.0000
vn 0.0000 1.0000 0.0000
usemtl None
s off
f 41/91/31 42/92/31 44/93/31 43/94/31
f 43/95/32 44/96/32 48/97/32 47/98/32
f 47/98/33 48/97/33 46/99/33 45/100/33
f 45/100/34 46/99/34 42/101/34 41/102/34
f 43/103/35 47/98/35 45/100/35 41/104/35
f 48/105/36 44/106/36 42/107/36 46/108/36
o Cube.005_Cube.006
v -0.649974 1.258129 -0.289535
v -0.649969 2.067542 -0.422046
v -1.140060 1.258129 -0.289554
v -1.140055 2.067542 -0.422065
v -0.649996 1.348954 0.265250
v -0.649991 2.158367 0.132739
v -1.140082 1.348954 0.265231
v -1.140077 2.158367 0.132719
v -0.768174 0.942455 -0.129259
v -0.768172 1.278480 -0.184270
v -1.116322 0.942455 -0.129272
v -1.116320 1.278480 -0.184284
v -0.768187 0.997557 0.207317
v -0.768185 1.333581 0.152305
v -1.116335 0.997557 0.207303
v -1.116333 1.333581 0.152292
vt 0.593750 0.750000
vt 0.515625 0.750000
vt 0.515625 1.000000
vt 0.593750 1.000000
vt 0.796875 0.562500
vt 0.875000 0.562500
vt 0.875000 0.812500
vt 0.796875 0.812500
vt 0.953125 0.562500
vt 0.875000 0.562500
vt 0.875000 0.812500
vt 0.953125 0.812500
vt 0.796875 0.562500
vt 0.796875 0.812500
vt 0.953125 0.812500
vt 0.875000 0.812500
vt 0.875000 0.968750
vt 0.953125 0.968750
vt 0.875000 0.968750
vt 0.953125 0.968750
vt 0.812500 0.250000
vt 0.750000 0.250000
vt 0.750000 0.375000
vt 0.812500 0.375000
vt 0.828125 0.437500
vt 0.890625 0.437500
vt 0.890625 0.562500
vt 0.828125 0.562500
vt 0.953125 0.437500
vt 0.890625 0.437500
vt 0.890625 0.562500
vt 0.953125 0.562500
vt 0.828125 0.437500
vt 0.828125 0.562500
vt 0.953125 0.812500
vt 0.875000 0.812500
vt 0.875000 0.968750
vt 0.953125 0.968750
vt 0.953125 0.812500
vt 0.875000 0.812500
vt 0.875000 0.968750
vt 0.953125 0.968750
vn 0.0000 -0.1616 -0.9869
vn -1.0000 -0.0000 -0.0000
vn -0.0000 0.1616 0.9869
vn 1.0000 0.0000 0.0000
vn -0.0000 -0.9869 0.1616
vn 0.0000 0.9869 -0.1616
usemtl None
s off
f 49/109/37 51/110/37 52/111/37 50/112/37
f 51/113/38 55/114/38 56/115/38 52/116/38
f 55/117/39 53/118/39 54/119/39 56/120/39
f 53/118/40 49/121/40 50/122/40 54/119/40
f 51/123/41 49/124/41 53/125/41 55/126/41
f 56/120/42 54/119/42 50/127/42 52/128/42
f 57/129/37 59/130/37 60/131/37 58/132/37
f 59/133/38 63/134/38 64/135/38 60/136/38
f 63/137/39 61/138/39 62/139/39 64/140/39
f 61/138/40 57/141/40 58/142/40 62/139/40
f 59/143/41 57/144/41 61/145/41 63/146/41
f 64/147/42 62/148/42 58/149/42 60/150/42
o Cube.004_Cube.005
v -0.718507 0.387502 -0.497137
v -0.718515 1.129739 -0.293424
v -1.178416 0.387502 -0.497155
v -1.178425 1.129739 -0.293442
v -0.718527 0.247874 0.011605
v -0.718535 0.990111 0.215318
v -1.178437 0.247874 0.011587
v -1.178445 0.990111 0.215299
vt 0.078125 0.468750
vt 0.000000 0.468750
vt 0.000000 0.718750
vt 0.078125 0.718750
vt 0.796875 0.562500
vt 0.875000 0.562500
vt 0.875000 0.812500
vt 0.796875 0.812500
vt 0.968750 0.093750
vt 0.890625 0.093750
vt 0.890625 0.343750
vt 0.968750 0.343750
vt 0.812500 0.093750
vt 0.812500 0.343750
vt 0.875000 0.812500
vt 0.796875 0.812500
vt 0.796875 0.968750
vt 0.875000 0.968750
vt 0.953125 0.812500
vt 0.875000 0.812500
vt 0.875000 0.968750
vt 0.953125 0.968750
vn 0.0000 0.2647 -0.9643
vn -1.0000 -0.0000 -0.0000
vn -0.0000 -0.2647 0.9643
vn 1.0000 0.0000 0.0000
vn 0.0000 -0.9643 -0.2647
vn -0.0000 0.9643 0.2647
usemtl None
s off
f 65/151/43 67/152/43 68/153/43 66/154/43
f 67/155/44 71/156/44 72/157/44 68/158/44
f 71/159/45 69/160/45 70/161/45 72/162/45
f 69/160/46 65/163/46 66/164/46 70/161/46
f 67/165/47 65/166/47 69/167/47 71/168/47
f 72/169/48 70/170/48 66/171/48 68/172/48
o Cube.003_Cube.004
v 1.001934 0.247874 0.011672
v 1.001926 0.990111 0.215385
v 0.542025 0.247874 0.011654
v 0.542017 0.990111 0.215367
v 1.001954 0.387502 -0.497069
v 1.001946 1.129739 -0.293356
v 0.542045 0.387502 -0.497087
v 0.542037 1.129739 -0.293374
vt 0.078125 0.468750
vt 0.078125 0.718750
vt 0.000000 0.718750
vt 0.000000 0.468750
vt 0.796875 0.562500
vt 0.796875 0.812500
vt 0.875000 0.812500
vt 0.875000 0.562500
vt 0.968750 0.093750
vt 0.968750 0.343750
vt 0.890625 0.343750
vt 0.890625 0.093750
vt 0.812500 0.343750
vt 0.812500 0.093750
vt 0.875000 0.812500
vt 0.875000 0.968750
vt 0.796875 0.968750
vt 0.796875 0.812500
vt 0.953125 0.812500
vt 0.953125 0.968750
vt 0.875000 0.968750
vt 0.875000 0.812500
vn -0.0000 -0.2647 0.9643
vn -1.0000 0.0000 -0.0000
vn 0.0000 0.2647 -0.9643
vn 1.0000 -0.0000 0.0000
vn 0.0000 -0.9643 -0.2647
vn -0.0000 0.9643 0.2647
usemtl None
s off
f 73/173/49 74/174/49 76/175/49 75/176/49
f 75/177/50 76/178/50 80/179/50 79/180/50
f 79/181/51 80/182/51 78/183/51 77/184/51
f 77/184/52 78/183/52 74/185/52 73/186/52
f 75/187/53 79/188/53 77/189/53 73/190/53
f 80/191/54 76/192/54 74/193/54 78/194/54
o Cube.002_Cube.003
v 1.013013 1.348954 0.265315
v 1.013018 2.158367 0.132804
v 0.522927 1.348954 0.265296
v 0.522932 2.158367 0.132785
v 1.013035 1.258129 -0.289469
v 1.013040 2.067542 -0.421981
v 0.522949 1.258129 -0.289489
v 0.522954 2.067542 -0.422000
v 0.894821 0.998650 0.214059
v 0.894824 1.334675 0.159048
v 0.546674 0.998650 0.214045
v 0.546676 1.334675 0.159034
v 0.894835 0.943548 -0.122517
v 0.894837 1.279573 -0.177528
v 0.546687 0.943548 -0.122530
v 0.546689 1.279573 -0.177542
vt 0.593750 0.750000
vt 0.593750 1.000000
vt 0.515625 1.000000
vt 0.515625 0.750000
vt 0.796875 0.562500
vt 0.796875 0.812500
vt 0.875000 0.812500
vt 0.875000 0.562500
vt 0.953125 0.562500
vt 0.953125 0.812500
vt 0.875000 0.812500
vt 0.875000 0.562500
vt 0.796875 0.812500
vt 0.796875 0.562500
vt 0.953125 0.812500
vt 0.953125 0.968750
vt 0.875000 0.968750
vt 0.875000 0.812500
vt 0.953125 0.968750
vt 0.875000 0.968750
vt 0.812500 0.250000
vt 0.812500 0.375000
vt 0.750000 0.375000
vt 0.750000 0.250000
vt 0.828125 0.437500
vt 0.828125 0.562500
vt 0.890625 0.562500
vt 0.890625 0.437500
vt 0.953125 0.437500
vt 0.953125 0.562500
vt 0.890625 0.562500
vt 0.890625 0.437500
vt 0.828125 0.562500
vt 0.828125 0.437500
vt 0.953125 0.812500
vt 0.953125 0.968750
vt 0.875000 0.968750
vt 0.875000 0.812500
vt 0.953125 0.812500
vt 0.953125 0.968750
vt 0.875000 0.968750
vt 0.875000 0.812500
vn -0.0000 0.1616 0.9869
vn -1.0000 0.0000 -0.0000
vn 0.0000 -0.1616 -0.9869
vn 1.0000 -0.0000 0.0000
vn -0.0000 -0.9869 0.1616
vn 0.0000 0.9869 -0.1616
usemtl None
s off
f 81/195/55 82/196/55 84/197/55 83/198/55
f 83/199/56 84/200/56 88/201/56 87/202/56
f 87/203/57 88/204/57 86/205/57 85/206/57
f 85/206/58 86/205/58 82/207/58 81/208/58
f 83/209/59 87/210/59 85/211/59 81/212/59
f 88/204/60 84/213/60 82/214/60 86/205/60
f 89/215/55 90/216/55 92/217/55 91/218/55
f 91/219/56 92/220/56 96/221/56 95/222/56
f 95/223/57 96/224/57 94/225/57 93/226/57
f 93/226/58 94/225/58 90/227/58 89/228/58
f 91/229/59 95/230/59 93/231/59 89/232/59
f 96/233/60 92/234/60 90/235/60 94/236/60
o Cube.001_Cube.002
v 0.568732 0.970848 0.289033
v 0.568732 2.015225 0.289033
v -0.720895 0.970848 0.288982
v -0.720895 2.015225 0.288982
v 0.568761 0.970848 -0.456607
v 0.568761 2.015225 -0.456607
v -0.720865 0.970848 -0.456658
v -0.720865 2.015225 -0.456658
v -0.549633 0.990663 -0.357645
v -0.549633 0.223630 -0.357645
v 0.397521 0.990663 -0.357608
v 0.397521 0.223630 -0.357608
v -0.549654 0.990663 0.189983
v -0.549654 0.223630 0.189983
v 0.397499 0.990663 0.190020
v 0.397499 0.223630 0.190020
vt 0.562500 0.093750
vt 0.562500 0.437500
vt 0.375000 0.437500
vt 0.375000 0.093750
vt -0.000000 0.093750
vt 0.000000 0.437500
vt 0.093750 0.437500
vt 0.093750 0.093750
vt 0.281250 0.093750
vt 0.281250 0.437500
vt 0.093750 0.437500
vt 0.093750 0.093750
vt 0.375000 0.093750
vt 0.375000 0.437500
vt 0.281250 0.437500
vt 0.281250 0.093750
vt 0.562500 0.437500
vt 0.562500 0.593750
vt 0.375000 0.593750
vt 0.375000 0.437500
vt 0.281250 0.625000
vt 0.093750 0.625000
vt 0.281250 0.437500
vt 0.281250 0.625000
vt 0.093750 0.625000
vt 0.093750 0.437500
vt 0.281250 0.437500
vt 0.281250 0.625000
vt 0.093750 0.625000
vt 0.093750 0.437500
vt 0.593750 0.437500
vt 0.593750 0.625000
vt 0.515625 0.625000
vt 0.515625 0.437500
vt 0.515625 0.437500
vt 0.515625 0.625000
vt 0.359375 0.625000
vt 0.359375 0.437500
vt 0.359375 0.625000
vt 0.359375 0.437500
vt 0.812500 -0.000000
vt 0.812500 0.187500
vt 0.656250 0.187500
vt 0.656250 0.000000
vn -0.0000 0.0000 1.0000
vn -1.0000 0.0000 -0.0000
vn 0.0000 0.0000 -1.0000
vn 1.0000 0.0000 0.0000
vn 0.0000 -1.0000 -0.0000
vn 0.0000 1.0000 0.0000
usemtl None
s off
f 97/237/61 98/238/61 100/239/61 99/240/61
f 99/241/62 100/242/62 104/243/62 103/244/62
f 103/245/63 104/246/63 102/247/63 101/248/63
f 101/249/64 102/250/64 98/251/64 97/252/64
f 99/253/65 103/254/65 101/255/65 97/256/65
f 104/246/66 100/257/66 98/258/66 102/247/66
f 105/259/66 109/260/66 111/261/66 107/262/66
f 110/263/65 106/264/65 108/265/65 112/266/65
f 108/267/64 107/268/64 111/269/64 112/270/64
f 106/271/63 105/272/63 107/273/63 108/274/63
f 110/263/62 109/260/62 105/275/62 106/276/62
f 112/277/61 111/278/61 109/279/61 110/280/61
o Cube
v 0.467718 2.049399 0.394227
v 0.467726 3.116483 0.183940
v -0.619889 2.049399 0.394184
v -0.619881 3.116483 0.183897
v 0.467760 1.839112 -0.672857
v 0.467768 2.906196 -0.883144
v -0.619847 1.839112 -0.672899
v -0.619839 2.906196 -0.883187
v 0.456470 1.777216 -0.503870
v 0.456478 2.117780 -0.715257
v -0.608570 1.777216 -0.503912
v -0.608562 2.117780 -0.715298
v 0.456475 1.695132 -0.636116
v 0.456483 2.035696 -0.847502
v -0.608565 1.695132 -0.636158
v -0.608557 2.035696 -0.847544
v -0.374063 2.049209 -0.674433
v -0.374062 2.195047 -0.703172
v -0.522706 2.049209 -0.674438
v -0.522705 2.195047 -0.703178
v -0.374058 2.020469 -0.820270
v -0.374057 2.166307 -0.849010
v -0.522700 2.020469 -0.820276
v -0.522699 2.166307 -0.849015
v 0.371607 2.049209 -0.674403
v 0.371608 2.195047 -0.703143
v 0.222965 2.049209 -0.674409
v 0.222966 2.195047 -0.703149
v 0.371613 2.020469 -0.820241
v 0.371614 2.166307 -0.848980
v 0.222970 2.020469 -0.820246
v 0.222971 2.166307 -0.848986
vt 0.500000 0.750000
vt 0.500000 1.000000
vt 0.375000 1.000000
vt 0.375000 0.750000
vt 0.000000 0.750000
vt 0.000000 1.000000
vt 0.125000 1.000000
vt 0.125000 0.750000
vt 0.250000 0.750000
vt 0.250000 1.000000
vt 0.125000 1.000000
vt 0.125000 0.750000
vt 0.000000 1.000000
vt -0.000000 0.750000
vt 0.359375 0.625000
vt 0.359375 0.750000
vt 0.296875 0.750000
vt 0.296875 0.625000
vt 0.375000 0.750000
vt 0.250000 1.000000
vt 0.250000 0.750000
vt 0.500000 0.750000
vt 0.500000 1.000000
vt 0.375000 1.000000
vt 0.375000 0.750000
vt 0.125000 0.625000
vt 0.125000 0.718750
vt 0.140625 0.718750
vt 0.140625 0.625000
vt 0.250000 0.625000
vt 0.250000 0.718750
vt 0.125000 0.718750
vt 0.125000 0.625000
vt 0.250000 0.625000
vt 0.250000 0.718750
vt 0.234375 0.718750
vt 0.234375 0.625000
vt 0.250000 0.625000
vt 0.250000 0.656250
vt 0.125000 0.656250
vt 0.125000 0.625000
vt 0.250000 0.750000
vt 0.125000 0.750000
vt 0.265625 0.718750
vt 0.265625 0.750000
vt 0.250000 0.750000
vt 0.250000 0.718750
vt 0.265625 0.750000
vt 0.265625 0.718750
vt 0.250000 0.750000
vt 0.250000 0.718750
vt 0.265625 0.718750
vt 0.265625 0.750000
vt 0.250000 0.750000
vt 0.250000 0.718750
vt 0.265625 0.718750
vt 0.265625 0.750000
vt 0.250000 0.750000
vt 0.265625 0.718750
vt 0.265625 0.750000
vt 0.250000 0.718750
vt 0.265625 0.718750
vt 0.265625 0.750000
vt 0.250000 0.750000
vt 0.250000 0.718750
vt 0.265625 0.750000
vt 0.265625 0.718750
vt 0.250000 0.750000
vt 0.250000 0.718750
vt 0.265625 0.718750
vt 0.265625 0.750000
vt 0.250000 0.750000
vt 0.250000 0.718750
vt 0.265625 0.718750
vt 0.265625 0.750000
vt 0.250000 0.750000
vt 0.265625 0.718750
vt 0.265625 0.750000
vt 0.250000 0.718750
vn -0.0000 0.1933 0.9811
vn -1.0000 0.0000 -0.0000
vn 0.0000 -0.1933 -0.9811
vn 1.0000 -0.0000 0.0000
vn -0.0000 -0.9811 0.1933
vn 0.0000 0.9811 -0.1933
vn -0.0000 0.5274 0.8496
vn 0.0000 -0.5274 -0.8496
vn -0.0000 -0.8496 0.5274
vn 0.0000 0.8496 -0.5274
vn 0.0000 0.9811 -0.1934
usemtl None
s off
f 113/281/67 114/282/67 116/283/67 115/284/67
f 115/285/68 116/286/68 120/287/68 119/288/68
f 119/289/69 120/290/69 118/291/69 117/292/69
f 117/292/70 118/291/70 114/293/70 113/294/70
f 115/295/71 119/296/71 117/297/71 113/298/71
f 120/299/72 116/283/72 114/300/72 118/301/72
f 121/302/73 122/303/73 124/304/73 123/305/73
f 123/306/68 124/307/68 128/308/68 127/309/68
f 127/310/74 128/311/74 126/312/74 125/313/74
f 125/314/70 126/315/70 122/316/70 121/317/70
f 123/318/75 127/319/75 125/320/75 121/321/75
f 128/311/76 124/322/76 122/323/76 126/312/76
f 129/324/67 130/325/67 132/326/67 131/327/67
f 131/327/68 132/326/68 136/328/68 135/329/68
f 135/329/69 136/328/69 134/330/69 133/331/69
f 133/332/70 134/333/70 130/334/70 129/335/70
f 131/336/71 135/337/71 133/338/71 129/335/71
f 136/339/72 132/340/72 130/334/72 134/341/72
f 137/342/67 138/343/67 140/344/67 139/345/67
f 139/345/68 140/344/68 144/346/68 143/347/68
f 143/347/69 144/346/69 142/348/69 141/349/69
f 141/350/70 142/351/70 138/352/70 137/353/70
f 139/354/71 143/355/71 141/356/71 137/353/71
f 144/357/77 140/358/77 138/352/77 142/359/77
