# Blender v2.79 (sub 0) OBJ File: 'ogre.blend'
# www.blender.org
mtllib ogre.mtl
o Cube.011_Cube.012
v -1.084884 -0.944435 -0.090576
v -1.084884 -0.450220 -0.090576
v 0.057262 -0.944435 -0.090425
v 0.057262 -0.450220 -0.090425
v -1.084697 -0.944435 -1.510507
v -1.084697 -0.450220 -1.510507
v 0.057449 -0.944435 -1.510356
v 0.057449 -0.450220 -1.510356
vt 0.656250 0.437500
vt 0.593750 0.437500
vt 0.593750 0.375000
vt 0.656250 0.375000
vt 0.687500 0.375000
vt 0.687500 0.187500
vt 0.656250 0.187500
vt 0.656250 0.375000
vt 0.656250 0.125000
vt 0.593750 0.125000
vt 0.593750 0.187500
vt 0.562500 0.187500
vt 0.562500 0.375000
vt 0.593750 0.375000
vt 0.718750 0.656250
vt 0.656250 0.656250
vt 0.656250 0.781250
vt 0.718750 0.781250
vn -0.0001 0.0000 1.0000
vn 1.0000 0.0000 0.0001
vn 0.0001 0.0000 -1.0000
vn -1.0000 0.0000 -0.0001
vn 0.0000 -1.0000 0.0000
vn 0.0000 1.0000 0.0000
usemtl None
s off
f 1/1/1 3/2/1 4/3/1 2/4/1
f 3/5/2 7/6/2 8/7/2 4/8/2
f 7/9/3 5/10/3 6/11/3 8/7/3
f 5/12/4 1/13/4 2/14/4 6/11/4
f 3/15/5 1/16/5 5/17/5 7/18/5
f 8/7/6 6/11/6 2/14/6 4/8/6
o Cube.010_Cube.011
v 1.313402 -0.945088 -0.089916
v 1.313402 -0.449914 -0.089916
v 0.169040 -0.945088 -0.090067
v 0.169040 -0.449914 -0.090067
v 1.313590 -0.945088 -1.512601
v 1.313590 -0.449914 -1.512601
v 0.169228 -0.945088 -1.512752
v 0.169228 -0.449914 -1.512752
vt 0.656250 0.437500
vt 0.656250 0.375000
vt 0.593750 0.375000
vt 0.593750 0.437500
vt 0.687500 0.375000
vt 0.656250 0.375000
vt 0.656250 0.187500
vt 0.687500 0.187500
vt 0.656250 0.125000
vt 0.593750 0.187500
vt 0.593750 0.125000
vt 0.562500 0.187500
vt 0.593750 0.375000
vt 0.562500 0.375000
vt 0.718750 0.656250
vt 0.718750 0.781250
vt 0.656250 0.781250
vt 0.656250 0.656250
vn -0.0001 0.0000 1.0000
vn -1.0000 0.0000 -0.0001
vn 0.0001 0.0000 -1.0000
vn 1.0000 0.0000 0.0001
vn 0.0000 -1.0000 0.0000
vn 0.0000 1.0000 0.0000
usemtl None
s off
f 9/19/7 10/20/7 12/21/7 11/22/7
f 11/23/8 12/24/8 16/25/8 15/26/8
f 15/27/9 16/25/9 14/28/9 13/29/9
f 13/30/10 14/28/10 10/31/10 9/32/10
f 11/33/11 15/34/11 13/35/11 9/36/11
f 16/25/12 12/24/12 10/31/12 14/28/12
o Cube.009_Cube.010
v 1.322985 -0.971455 0.614633
v 1.322985 0.475290 0.614633
v 0.159271 -0.971455 0.614480
v 0.159271 0.475290 0.614480
v 1.323176 -0.971455 -0.832112
v 1.323176 0.475290 -0.832112
v 0.159462 -0.971455 -0.832265
v 0.159462 0.475290 -0.832265
vt 0.718750 0.437500
vt 0.718750 0.656250
vt 0.656250 0.656250
vt 0.656250 0.437500
vt 0.781250 0.437500
vt 0.781250 0.656250
vt 0.718750 0.656250
vt 0.718750 0.437500
vt 0.656250 0.656250
vt 0.656250 0.437500
vt 0.593750 0.656250
vt 0.593750 0.437500
vt 0.718750 0.656250
vt 0.718750 0.781250
vt 0.656250 0.781250
vt 0.656250 0.656250
vt 0.718750 0.781250
vt 0.656250 0.781250
vn -0.0001 0.0000 1.0000
vn -1.0000 0.0000 -0.0001
vn 0.0001 0.0000 -1.0000
vn 1.0000 0.0000 0.0001
vn 0.0000 -1.0000 -0.0000
vn 0.0000 1.0000 0.0000
usemtl None
s off
f 17/37/13 18/38/13 20/39/13 19/40/13
f 19/41/14 20/42/14 24/43/14 23/44/14
f 23/44/15 24/43/15 22/45/15 21/46/15
f 21/46/16 22/45/16 18/47/16 17/48/16
f 19/49/17 23/50/17 21/51/17 17/52/17
f 24/43/18 20/53/18 18/54/18 22/45/18
o Cube.008_Cube.009
v 0.061959 -0.971455 0.614467
v 0.061959 0.475290 0.614467
v -1.101755 -0.971455 0.614313
v -1.101755 0.475290 0.614313
v 0.062150 -0.971455 -0.832278
v 0.062150 0.475290 -0.832278
v -1.101564 -0.971455 -0.832431
v -1.101564 0.475290 -0.832431
vt 0.718750 0.437500
vt 0.718750 0.656250
vt 0.656250 0.656250
vt 0.656250 0.437500
vt 0.781250 0.437500
vt 0.781250 0.656250
vt 0.718750 0.656250
vt 0.718750 0.437500
vt 0.656250 0.656250
vt 0.656250 0.437500
vt 0.593750 0.656250
vt 0.593750 0.437500
vt 0.718750 0.656250
vt 0.718750 0.781250
vt 0.656250 0.781250
vt 0.656250 0.656250
vt 0.718750 0.781250
vt 0.656250 0.781250
vn -0.0001 0.0000 1.0000
vn -1.0000 0.0000 -0.0001
vn 0.0001 0.0000 -1.0000
vn 1.0000 0.0000 0.0001
vn 0.0000 -1.0000 -0.0000
vn 0.0000 1.0000 -0.0000
usemtl None
s off
f 25/55/19 26/56/19 28/57/19 27/58/19
f 27/59/20 28/60/20 32/61/20 31/62/20
f 31/62/21 32/61/21 30/63/21 29/64/21
f 29/64/22 30/63/22 26/65/22 25/66/22
f 27/67/23 31/68/23 29/69/23 25/70/23
f 32/61/24 28/71/24 26/72/24 30/63/24
o Cube.007_Cube.008
v 0.061959 0.471845 0.614467
v 0.061959 1.918591 0.614467
v -1.101755 0.471845 0.614313
v -1.101755 1.918591 0.614313
v 0.062150 0.471845 -0.832278
v 0.062150 1.918591 -0.832278
v -1.101564 0.471845 -0.832431
v -1.101564 1.918591 -0.832431
vt 0.718750 0.437500
vt 0.718750 0.656250
vt 0.656250 0.656250
vt 0.656250 0.437500
vt 0.781250 0.781250
vt 0.781250 1.000000
vt 0.718750 1.000000
vt 0.718750 0.781250
vt 0.656250 1.000000
vt 0.656250 0.781250
vt 0.593750 1.000000
vt 0.593750 0.781250
vt 0.718750 0.656250
vt 0.656250 0.656250
vt 0.718750 0.656250
vt 0.718750 0.781250
vt 0.656250 0.781250
vt 0.656250 0.656250
vn -0.0001 0.0000 1.0000
vn -1.0000 0.0000 -0.0001
vn 0.0001 0.0000 -1.0000
vn 1.0000 0.0000 0.0001
vn 0.0000 -1.0000 0.0000
vn 0.0000 1.0000 -0.0000
usemtl None
s off
f 33/73/25 34/74/25 36/75/25 35/76/25
f 35/77/26 36/78/26 40/79/26 39/80/26
f 39/80/27 40/79/27 38/81/27 37/82/27
f 37/82/28 38/81/28 34/83/28 33/84/28
f 35/85/29 39/80/29 37/82/29 33/86/29
f 40/87/30 36/88/30 34/89/30 38/90/30
o Cube.006_Cube.007
v 1.322985 0.471845 0.614633
v 1.322985 1.918591 0.614633
v 0.159271 0.471845 0.614480
v 0.159271 1.918591 0.614480
v 1.323176 0.471845 -0.832112
v 1.323176 1.918591 -0.832112
v 0.159462 0.471845 -0.832265
v 0.159462 1.918591 -0.832265
vt 0.718750 0.437500
vt 0.718750 0.656250
vt 0.656250 0.656250
vt 0.656250 0.437500
vt 0.781250 0.781250
vt 0.781250 1.000000
vt 0.718750 1.000000
vt 0.718750 0.781250
vt 0.656250 1.000000
vt 0.656250 0.781250
vt 0.593750 1.000000
vt 0.593750 0.781250
vt 0.718750 0.656250
vt 0.656250 0.656250
vt 0.718750 0.656250
vt 0.718750 0.781250
vt 0.656250 0.781250
vt 0.656250 0.656250
vn -0.0001 0.0000 1.0000
vn -1.0000 0.0000 -0.0001
vn 0.0001 0.0000 -1.0000
vn 1.0000 0.0000 0.0001
vn 0.0000 -1.0000 -0.0000
vn 0.0000 1.0000 0.0000
usemtl None
s off
f 41/91/31 42/92/31 44/93/31 43/94/31
f 43/95/32 44/96/32 48/97/32 47/98/32
f 47/98/33 48/97/33 46/99/33 45/100/33
f 45/100/34 46/99/34 42/101/34 41/102/34
f 43/103/35 47/98/35 45/100/35 41/104/35
f 48/105/36 44/106/36 42/107/36 46/108/36
o Cube.005_Cube.006
v -1.489298 4.315375 -0.724733
v -1.489246 6.748256 -1.123026
v -2.962367 4.315375 -0.724927
v -2.962314 6.748256 -1.123221
v -1.489518 4.588372 0.942802
v -1.489466 7.021252 0.544508
v -2.962587 4.588372 0.942607
v -2.962534 7.021252 0.544314
v -1.844621 3.366545 -0.243019
v -1.844599 4.376545 -0.408369
v -2.891061 3.366545 -0.243157
v -2.891039 4.376545 -0.408507
v -1.844755 3.532166 0.768638
v -1.844733 4.542166 0.603288
v -2.891195 3.532166 0.768500
v -2.891173 4.542166 0.603150
vt 0.593750 0.750000
vt 0.515625 0.750000
vt 0.515625 1.000000
vt 0.593750 1.000000
vt 0.796875 0.562500
vt 0.875000 0.562500
vt 0.875000 0.812500
vt 0.796875 0.812500
vt 0.953125 0.562500
vt 0.875000 0.562500
vt 0.875000 0.812500
vt 0.953125 0.812500
vt 0.796875 0.562500
vt 0.796875 0.812500
vt 0.953125 0.812500
vt 0.875000 0.812500
vt 0.875000 0.968750
vt 0.953125 0.968750
vt 0.875000 0.968750
vt 0.953125 0.968750
vt 0.812500 0.250000
vt 0.750000 0.250000
vt 0.750000 0.375000
vt 0.812500 0.375000
vt 0.828125 0.437500
vt 0.890625 0.437500
vt 0.890625 0.562500
vt 0.828125 0.562500
vt 0.953125 0.437500
vt 0.890625 0.437500
vt 0.890625 0.562500
vt 0.953125 0.562500
vt 0.828125 0.437500
vt 0.828125 0.562500
vt 0.953125 0.812500
vt 0.875000 0.812500
vt 0.875000 0.968750
vt 0.953125 0.968750
vt 0.953125 0.812500
vt 0.875000 0.812500
vt 0.875000 0.968750
vt 0.953125 0.968750
vn 0.0001 -0.1616 -0.9869
vn -1.0000 -0.0000 -0.0001
vn -0.0001 0.1616 0.9869
vn 1.0000 0.0000 0.0001
vn -0.0000 -0.9869 0.1616
vn 0.0000 0.9869 -0.1616
usemtl None
s off
f 49/109/37 51/110/37 52/111/37 50/112/37
f 51/113/38 55/114/38 56/115/38 52/116/38
f 55/117/39 53/118/39 54/119/39 56/120/39
f 53/118/40 49/121/40 50/122/40 54/119/40
f 51/123/41 49/124/41 53/125/41 55/126/41
f 56/120/42 54/119/42 50/127/42 52/128/42
f 57/129/37 59/130/37 60/131/37 58/132/37
f 59/133/38 63/134/38 64/135/38 60/136/38
f 63/137/39 61/138/39 62/139/39 64/140/39
f 61/138/40 57/141/40 58/142/40 62/139/40
f 59/143/41 57/144/41 61/145/41 63/146/41
f 64/147/42 62/148/42 58/149/42 60/150/42
o Cube.004_Cube.005
v -1.498769 1.426439 -1.342054
v -1.498855 3.803792 -0.689570
v -2.971838 1.426439 -1.342248
v -2.971924 3.803792 -0.689764
v -1.498984 0.979216 0.287422
v -1.499070 3.356570 0.939905
v -2.972053 0.979216 0.287228
v -2.972139 3.356570 0.939711
vt 0.078125 0.468750
vt 0.000000 0.468750
vt 0.000000 0.718750
vt 0.078125 0.718750
vt 0.796875 0.562500
vt 0.875000 0.562500
vt 0.875000 0.812500
vt 0.796875 0.812500
vt 0.968750 0.093750
vt 0.890625 0.093750
vt 0.890625 0.343750
vt 0.968750 0.343750
vt 0.812500 0.093750
vt 0.812500 0.343750
vt 0.875000 0.812500
vt 0.796875 0.812500
vt 0.796875 0.968750
vt 0.875000 0.968750
vt 0.953125 0.812500
vt 0.875000 0.812500
vt 0.875000 0.968750
vt 0.953125 0.968750
vn 0.0001 0.2647 -0.9643
vn -1.0000 -0.0000 -0.0001
vn -0.0001 -0.2647 0.9643
vn 1.0000 0.0000 0.0001
vn 0.0000 -0.9643 -0.2647
vn -0.0000 0.9643 0.2647
usemtl None
s off
f 65/151/43 67/152/43 68/153/43 66/154/43
f 67/155/44 71/156/44 72/157/44 68/158/44
f 71/159/45 69/160/45 70/161/45 72/162/45
f 69/160/46 65/163/46 66/164/46 70/161/46
f 67/165/47 65/166/47 69/167/47 71/168/47
f 72/169/48 70/170/48 66/171/48 68/172/48
o Cube.003_Cube.004
v 3.187223 0.979216 0.288040
v 3.187137 3.356570 0.940523
v 1.714154 0.979216 0.287845
v 1.714068 3.356570 0.940329
v 3.187438 1.426439 -1.341436
v 3.187352 3.803792 -0.688952
v 1.714369 1.426439 -1.341630
v 1.714283 3.803792 -0.689147
vt 0.078125 0.468750
vt 0.078125 0.718750
vt 0.000000 0.718750
vt 0.000000 0.468750
vt 0.796875 0.562500
vt 0.796875 0.812500
vt 0.875000 0.812500
vt 0.875000 0.562500
vt 0.968750 0.093750
vt 0.968750 0.343750
vt 0.890625 0.343750
vt 0.890625 0.093750
vt 0.812500 0.343750
vt 0.812500 0.093750
vt 0.875000 0.812500
vt 0.875000 0.968750
vt 0.796875 0.968750
vt 0.796875 0.812500
vt 0.953125 0.812500
vt 0.953125 0.968750
vt 0.875000 0.968750
vt 0.875000 0.812500
vn -0.0001 -0.2647 0.9643
vn -1.0000 -0.0000 -0.0001
vn 0.0001 0.2647 -0.9643
vn 1.0000 -0.0000 0.0001
vn 0.0000 -0.9643 -0.2647
vn -0.0000 0.9643 0.2647
usemtl None
s off
f 73/173/49 74/174/49 76/175/49 75/176/49
f 75/177/50 76/178/50 80/179/50 79/180/50
f 79/181/51 80/182/51 78/183/51 77/184/51
f 77/184/52 78/183/52 74/185/52 73/186/52
f 75/187/53 79/188/53 77/189/53 73/190/53
f 80/191/54 76/192/54 74/193/54 78/194/54
o Cube.002_Cube.003
v 3.196688 4.588372 0.943420
v 3.196741 7.021252 0.545126
v 1.723619 4.588372 0.943225
v 1.723672 7.021252 0.544932
v 3.196908 4.315375 -0.724115
v 3.196960 6.748256 -1.122408
v 1.723839 4.315375 -0.724309
v 1.723892 6.748256 -1.122603
v 2.841449 3.535451 0.789324
v 2.841471 4.545452 0.623975
v 1.795009 3.535451 0.789186
v 1.795031 4.545452 0.623837
v 2.841583 3.369830 -0.222333
v 2.841604 4.379830 -0.387683
v 1.795143 3.369830 -0.222471
v 1.795164 4.379830 -0.387821
vt 0.593750 0.750000
vt 0.593750 1.000000
vt 0.515625 1.000000
vt 0.515625 0.750000
vt 0.796875 0.562500
vt 0.796875 0.812500
vt 0.875000 0.812500
vt 0.875000 0.562500
vt 0.953125 0.562500
vt 0.953125 0.812500
vt 0.875000 0.812500
vt 0.875000 0.562500
vt 0.796875 0.812500
vt 0.796875 0.562500
vt 0.953125 0.812500
vt 0.953125 0.968750
vt 0.875000 0.968750
vt 0.875000 0.812500
vt 0.953125 0.968750
vt 0.875000 0.968750
vt 0.812500 0.250000
vt 0.812500 0.375000
vt 0.750000 0.375000
vt 0.750000 0.250000
vt 0.828125 0.437500
vt 0.828125 0.562500
vt 0.890625 0.562500
vt 0.890625 0.437500
vt 0.953125 0.437500
vt 0.953125 0.562500
vt 0.890625 0.562500
vt 0.890625 0.437500
vt 0.828125 0.562500
vt 0.828125 0.437500
vt 0.953125 0.812500
vt 0.953125 0.968750
vt 0.875000 0.968750
vt 0.875000 0.812500
vt 0.953125 0.812500
vt 0.953125 0.968750
vt 0.875000 0.968750
vt 0.875000 0.812500
vn -0.0001 0.1616 0.9869
vn -1.0000 -0.0000 -0.0001
vn 0.0001 -0.1616 -0.9869
vn 1.0000 -0.0000 0.0001
vn -0.0000 -0.9869 0.1616
vn 0.0000 0.9869 -0.1616
usemtl None
s off
f 81/195/55 82/196/55 84/197/55 83/198/55
f 83/199/56 84/200/56 88/201/56 87/202/56
f 87/203/57 88/204/57 86/205/57 85/206/57
f 85/206/58 86/205/58 82/207/58 81/208/58
f 83/209/59 87/210/59 85/211/59 81/212/59
f 88/204/60 84/213/60 82/214/60 86/205/60
f 89/215/55 90/216/55 92/217/55 91/218/55
f 91/219/56 92/220/56 96/221/56 95/222/56
f 95/223/57 96/224/57 94/225/57 93/226/57
f 93/226/58 94/225/58 90/227/58 89/228/58
f 91/229/59 95/230/59 93/231/59 89/232/59
f 96/233/60 92/234/60 90/235/60 94/236/60
o Cube.001_Cube.002
v 1.756768 3.807196 0.842672
v 1.756768 6.464778 0.842672
v -1.524889 3.807196 0.842239
v -1.524889 6.464778 0.842239
v 1.757019 3.807196 -1.054725
v 1.757019 6.464778 -1.054725
v -1.524639 3.807196 -1.055158
v -1.524639 6.464778 -1.055158
v -1.088934 3.857617 -0.803165
v -1.088934 1.905782 -0.803165
v 1.321247 3.857617 -0.802847
v 1.321247 1.905782 -0.802847
v -1.089118 3.857617 0.590361
v -1.089118 1.905782 0.590361
v 1.321064 3.857617 0.590679
v 1.321064 1.905782 0.590679
vt 0.562500 0.093750
vt 0.562500 0.437500
vt 0.375000 0.437500
vt 0.375000 0.093750
vt -0.000000 0.093750
vt 0.000000 0.437500
vt 0.093750 0.437500
vt 0.093750 0.093750
vt 0.281250 0.093750
vt 0.281250 0.437500
vt 0.093750 0.437500
vt 0.093750 0.093750
vt 0.375000 0.093750
vt 0.375000 0.437500
vt 0.281250 0.437500
vt 0.281250 0.093750
vt 0.562500 0.437500
vt 0.562500 0.593750
vt 0.375000 0.593750
vt 0.375000 0.437500
vt 0.281250 0.625000
vt 0.093750 0.625000
vt 0.281250 0.437500
vt 0.281250 0.625000
vt 0.093750 0.625000
vt 0.093750 0.437500
vt 0.281250 0.437500
vt 0.281250 0.625000
vt 0.093750 0.625000
vt 0.093750 0.437500
vt 0.593750 0.437500
vt 0.593750 0.625000
vt 0.515625 0.625000
vt 0.515625 0.437500
vt 0.515625 0.437500
vt 0.515625 0.625000
vt 0.359375 0.625000
vt 0.359375 0.437500
vt 0.359375 0.625000
vt 0.359375 0.437500
vt 0.812500 -0.000000
vt 0.812500 0.187500
vt 0.656250 0.187500
vt 0.656250 0.000000
vn -0.0001 0.0000 1.0000
vn -1.0000 0.0000 -0.0001
vn 0.0001 0.0000 -1.0000
vn 1.0000 0.0000 0.0001
vn 0.0000 -1.0000 0.0000
vn 0.0000 1.0000 0.0000
usemtl None
s off
f 97/237/61 98/238/61 100/239/61 99/240/61
f 99/241/62 100/242/62 104/243/62 103/244/62
f 103/245/63 104/246/63 102/247/63 101/248/63
f 101/249/64 102/250/64 98/251/64 97/252/64
f 99/253/65 103/254/65 101/255/65 97/256/65
f 104/246/66 100/257/66 98/258/66 102/247/66
f 105/259/66 109/260/66 111/261/66 107/262/66
f 110/263/65 106/264/65 108/265/65 112/266/65
f 108/267/64 107/268/64 111/269/64 112/270/64
f 106/271/63 105/272/63 107/273/63 108/274/63
f 110/263/62 109/260/62 105/275/62 106/276/62
f 112/277/61 111/278/61 109/279/61 110/280/61
o Cube
v 1.115955 6.530595 0.723274
v 1.116006 8.492855 0.336576
v -0.884045 6.530595 0.723010
v -0.883994 8.492855 0.336313
v 1.116214 6.143898 -1.238987
v 1.116265 8.106157 -1.625684
v -0.883786 6.143898 -1.239250
v -0.883735 8.106157 -1.625948
v 1.095424 6.030077 -0.928239
v 1.095475 6.656341 -1.316958
v -0.863078 6.030077 -0.928498
v -0.863027 6.656341 -1.317216
v 1.095456 5.879133 -1.171426
v 1.095507 6.505396 -1.560144
v -0.863046 5.879133 -1.171684
v -0.862995 6.505396 -1.560403
v -0.431814 6.530245 -1.242028
v -0.431807 6.798425 -1.294877
v -0.705153 6.530245 -1.242064
v -0.705146 6.798425 -1.294913
v -0.431779 6.477396 -1.510208
v -0.431772 6.745576 -1.563058
v -0.705117 6.477396 -1.510244
v -0.705110 6.745576 -1.563094
v 0.939399 6.530245 -1.241847
v 0.939406 6.798425 -1.294696
v 0.666061 6.530245 -1.241883
v 0.666068 6.798425 -1.294732
v 0.939434 6.477396 -1.510027
v 0.939441 6.745576 -1.562877
v 0.666096 6.477396 -1.510063
v 0.666103 6.745576 -1.562913
vt 0.500000 0.750000
vt 0.500000 1.000000
vt 0.375000 1.000000
vt 0.375000 0.750000
vt 0.000000 0.750000
vt 0.000000 1.000000
vt 0.125000 1.000000
vt 0.125000 0.750000
vt 0.250000 0.750000
vt 0.250000 1.000000
vt 0.125000 1.000000
vt 0.125000 0.750000
vt 0.000000 1.000000
vt -0.000000 0.750000
vt 0.359375 0.625000
vt 0.359375 0.750000
vt 0.296875 0.750000
vt 0.296875 0.625000
vt 0.375000 0.750000
vt 0.250000 1.000000
vt 0.250000 0.750000
vt 0.500000 0.750000
vt 0.500000 1.000000
vt 0.375000 1.000000
vt 0.375000 0.750000
vt 0.125000 0.625000
vt 0.125000 0.718750
vt 0.140625 0.718750
vt 0.140625 0.625000
vt 0.250000 0.625000
vt 0.250000 0.718750
vt 0.125000 0.718750
vt 0.125000 0.625000
vt 0.250000 0.625000
vt 0.250000 0.718750
vt 0.234375 0.718750
vt 0.234375 0.625000
vt 0.250000 0.625000
vt 0.250000 0.656250
vt 0.125000 0.656250
vt 0.125000 0.625000
vt 0.250000 0.750000
vt 0.125000 0.750000
vt 0.265625 0.718750
vt 0.265625 0.750000
vt 0.250000 0.750000
vt 0.250000 0.718750
vt 0.265625 0.750000
vt 0.265625 0.718750
vt 0.250000 0.750000
vt 0.250000 0.718750
vt 0.265625 0.718750
vt 0.265625 0.750000
vt 0.250000 0.750000
vt 0.250000 0.718750
vt 0.265625 0.718750
vt 0.265625 0.750000
vt 0.250000 0.750000
vt 0.265625 0.718750
vt 0.265625 0.750000
vt 0.250000 0.718750
vt 0.265625 0.718750
vt 0.265625 0.750000
vt 0.250000 0.750000
vt 0.250000 0.718750
vt 0.265625 0.750000
vt 0.265625 0.718750
vt 0.250000 0.750000
vt 0.250000 0.718750
vt 0.265625 0.718750
vt 0.265625 0.750000
vt 0.250000 0.750000
vt 0.250000 0.718750
vt 0.265625 0.718750
vt 0.265625 0.750000
vt 0.250000 0.750000
vt 0.265625 0.718750
vt 0.265625 0.750000
vt 0.250000 0.718750
vn -0.0001 0.1933 0.9811
vn -1.0000 0.0000 -0.0001
vn 0.0001 -0.1933 -0.9811
vn 1.0000 0.0000 0.0001
vn -0.0000 -0.9811 0.1933
vn 0.0000 0.9811 -0.1933
vn -0.0001 0.5274 0.8496
vn 0.0001 -0.5274 -0.8496
vn -0.0001 -0.8496 0.5274
vn 0.0001 0.8496 -0.5274
usemtl None
s off
f 113/281/67 114/282/67 116/283/67 115/284/67
f 115/285/68 116/286/68 120/287/68 119/288/68
f 119/289/69 120/290/69 118/291/69 117/292/69
f 117/292/70 118/291/70 114/293/70 113/294/70
f 115/295/71 119/296/71 117/297/71 113/298/71
f 120/299/72 116/283/72 114/300/72 118/301/72
f 121/302/73 122/303/73 124/304/73 123/305/73
f 123/306/68 124/307/68 128/308/68 127/309/68
f 127/310/74 128/311/74 126/312/74 125/313/74
f 125/314/70 126/315/70 122/316/70 121/317/70
f 123/318/75 127/319/75 125/320/75 121/321/75
f 128/311/76 124/322/76 122/323/76 126/312/76
f 129/324/67 130/325/67 132/326/67 131/327/67
f 131/327/68 132/326/68 136/328/68 135/329/68
f 135/329/69 136/328/69 134/330/69 133/331/69
f 133/332/70 134/333/70 130/334/70 129/335/70
f 131/336/71 135/337/71 133/338/71 129/335/71
f 136/339/72 132/340/72 130/334/72 134/341/72
f 137/342/67 138/343/67 140/344/67 139/345/67
f 139/345/68 140/344/68 144/346/68 143/347/68
f 143/347/69 144/346/69 142/348/69 141/349/69
f 141/350/70 142/351/70 138/352/70 137/353/70
f 139/354/71 143/355/71 141/356/71 137/353/71
f 144/357/72 140/358/72 138/352/72 142/359/72
