<?xml version="1.0" encoding="UTF-8" standalone="no"?>
<svg
   class="icon icon-tabler icon-tabler-cube"
   width="24"
   height="24"
   viewBox="0 0 24 24"
   stroke-width="1.5"
   stroke="#9f9f9f"
   fill="none"
   stroke-linecap="round"
   stroke-linejoin="round"
   version="1.1"
   id="svg6779"
   sodipodi:docname="i3_all.svg"
   inkscape:version="1.2.2 (b0a8486541, 2022-12-01)"
   inkscape:export-filename="../textures/i3_all.png"
   inkscape:export-xdpi="256"
   inkscape:export-ydpi="256"
   xml:space="preserve"
   xmlns:inkscape="http://www.inkscape.org/namespaces/inkscape"
   xmlns:sodipodi="http://sodipodi.sourceforge.net/DTD/sodipodi-0.dtd"
   xmlns="http://www.w3.org/2000/svg"
   xmlns:svg="http://www.w3.org/2000/svg"><defs
     id="defs6783" /><sodipodi:namedview
     id="namedview6781"
     pagecolor="#ffffff"
     bordercolor="#666666"
     borderopacity="1.0"
     inkscape:showpageshadow="2"
     inkscape:pageopacity="0.0"
     inkscape:pagecheckerboard="0"
     inkscape:deskcolor="#d1d1d1"
     showgrid="false"
     inkscape:zoom="22.627417"
     inkscape:cx="13.678097"
     inkscape:cy="7.1594562"
     inkscape:window-width="1916"
     inkscape:window-height="1037"
     inkscape:window-x="1920"
     inkscape:window-y="0"
     inkscape:window-maximized="1"
     inkscape:current-layer="svg6779"
     showguides="false"><sodipodi:guide
       position="12,13.39372"
       orientation="0,-1"
       id="guide392"
       inkscape:locked="false" /><sodipodi:guide
       position="12,12"
       orientation="1,0"
       id="guide455"
       inkscape:locked="false" /><sodipodi:guide
       position="5.2274704,17.194148"
       orientation="1,0"
       id="guide689"
       inkscape:locked="false" /><sodipodi:guide
       position="18.773438,17.15625"
       orientation="1,0"
       id="guide715"
       inkscape:locked="false" /><sodipodi:guide
       position="12.018859,21.060252"
       orientation="0,-1"
       id="guide717"
       inkscape:locked="false" /></sodipodi:namedview><g
     id="thecube"><path
       id="outside"
       style="color:#000000;fill:#9f9f9f;stroke:none;stroke-linecap:round;stroke-linejoin:round;-inkscape-stroke:none"
       d="m 7.8886719,0.4296875 c -0.3285104,0 -0.656716,0.085694 -0.9511719,0.25390625 L 2.0820312,3.4628906 C 1.4931577,3.8006129 1.1269531,4.427888 1.1269531,5.1054688 v 5.5605472 c 0,0.678011 0.3660111,1.305697 0.9550781,1.642578 L 6.9375,15.087891 c 0.5889118,0.336424 1.3134318,0.336424 1.9023438,0 6.51e-4,10e-7 0.0013,10e-7 0.00195,0 L 13.011719,12.699219 C 12.529954,12.663792 12.074823,12.502406 11.701172,12.25 l -3.3769532,1.935547 v -0.002 c -0.2705553,0.154559 -0.6005387,0.154559 -0.8710938,0 v 0.002 L 2.5996094,11.404297 C 2.3301438,11.250192 2.1679688,10.971364 2.1679688,10.666016 V 5.1054688 c 0,-0.3043916 0.1619815,-0.5855835 0.4316406,-0.7402344 L 7.453125,1.5859375 c 0.2705551,-0.1545586 0.6005385,-0.1545586 0.8710938,0 l 4.8535152,2.7792969 c 6.51e-4,1.2e-6 0.0013,1.2e-6 0.002,0 0.266613,0.1518663 0.42915,0.4334018 0.429687,0.7402344 v 2.3886718 h 1.041016 V 5.1054688 c 10e-7,-6.511e-4 10e-7,-0.0013 0,-0.00195 -0.0012,-0.6782869 -0.365702,-1.3049093 -0.955079,-1.640625 L 8.8417969,0.68359375 c -6.51e-4,-1.22e-6 -0.0013,-1.22e-6 -0.00195,0 C 8.5453846,0.51538144 8.2171821,0.4296875 7.8886719,0.4296875 Z"
       sodipodi:nodetypes="sccsscccccccccccsscccccccccccccs" /><path
       d="M 7.8890523,14.820441 V 7.8855923"
       id="down"
       style="fill:none;stroke:#9f9f9f;stroke-width:1.04023;stroke-linecap:round;stroke-linejoin:round" /><path
       d="M 7.8890523,7.8855923 13.943175,4.3904288"
       id="right"
       style="fill:none;stroke:#9f9f9f;stroke-width:1.04023;stroke-linecap:round;stroke-linejoin:round" /><path
       d="M 1.8349298,4.3904288 7.8890523,7.8855923"
       id="left"
       style="fill:none;stroke:#9f9f9f;stroke-width:1.04023;stroke-linecap:round;stroke-linejoin:round" /></g><g
     id="pick"><path
       d="m 16.027046,12.215327 -6.6062281,6.63087 a 1.4721967,1.4721967 0 0 0 0,2.088956 1.4855739,1.4855739 0 0 0 2.0952931,0 l 6.623126,-6.607636"
       id="pickhandle"
       inkscape:export-filename="../.minetest/mods/i3/textures/i3_item.png"
       inkscape:export-xdpi="315.14853"
       inkscape:export-ydpi="315.14853"
       style="fill:none;stroke-width:1.04023" /><path
       d="m 13.210792,8.6950094 h 3.228835 A 0.70406346,0.70406346 0 0 1 16.9374,8.9013 l 4.515863,4.515863 a 0.70406346,0.70406346 0 0 1 0.206291,0.497773 v 3.228835 a 1.408127,1.408127 0 1 1 -2.816254,0 v -2.11219 l -3.520318,-3.520318 h -2.11219 a 1.408127,1.408127 0 1 1 0,-2.8162536 z"
       id="pickhead"
       style="fill:none;stroke-width:1.04023" /></g></svg>
