<?xml version="1.0" encoding="UTF-8" standalone="no"?>
<svg
   class="icon icon-tabler icon-tabler-cube"
   width="24"
   height="24"
   viewBox="0 0 24 24"
   stroke-width="1.5"
   stroke="#9f9f9f"
   fill="none"
   stroke-linecap="round"
   stroke-linejoin="round"
   version="1.1"
   id="svg6779"
   sodipodi:docname="i3_all_on.svg"
   inkscape:version="1.2.2 (b0a8486541, 2022-12-01)"
   inkscape:export-filename="../textures/i3_all_on.png"
   inkscape:export-xdpi="256"
   inkscape:export-ydpi="256"
   xmlns:inkscape="http://www.inkscape.org/namespaces/inkscape"
   xmlns:sodipodi="http://sodipodi.sourceforge.net/DTD/sodipodi-0.dtd"
   xmlns="http://www.w3.org/2000/svg"
   xmlns:svg="http://www.w3.org/2000/svg">
  <defs
     id="defs6783" />
  <sodipodi:namedview
     id="namedview6781"
     pagecolor="#ffffff"
     bordercolor="#666666"
     borderopacity="1.0"
     inkscape:showpageshadow="2"
     inkscape:pageopacity="0.0"
     inkscape:pagecheckerboard="0"
     inkscape:deskcolor="#d1d1d1"
     showgrid="false"
     inkscape:zoom="22.627417"
     inkscape:cx="10.00998"
     inkscape:cy="12.462757"
     inkscape:window-width="1916"
     inkscape:window-height="1037"
     inkscape:window-x="1920"
     inkscape:window-y="0"
     inkscape:window-maximized="1"
     inkscape:current-layer="pick"
     showguides="false">
    <sodipodi:guide
       position="12,13.39372"
       orientation="0,-1"
       id="guide392"
       inkscape:locked="false" />
    <sodipodi:guide
       position="12,12"
       orientation="1,0"
       id="guide455"
       inkscape:locked="false" />
    <sodipodi:guide
       position="5.2274704,17.194148"
       orientation="1,0"
       id="guide689"
       inkscape:locked="false" />
    <sodipodi:guide
       position="18.773438,17.15625"
       orientation="1,0"
       id="guide715"
       inkscape:locked="false" />
    <sodipodi:guide
       position="12.018859,21.060252"
       orientation="0,-1"
       id="guide717"
       inkscape:locked="false" />
  </sodipodi:namedview>
  <path
     stroke="none"
     d="M0 0h24v24H0z"
     fill="none"
     id="path6769"
     style="stroke:none;stroke-opacity:1" />
  <g
     id="node">
    <path
       style="fill:#9f9f9f;stroke:none;stroke-width:1.03929;stroke-dasharray:none;paint-order:markers stroke fill"
       d="M 6.6220804,13.712059 2.5278695,11.364892 C 2.2608053,11.161217 2.1657839,10.862082 2.16921,10.742707 L 2.170526,5.6261166 C 2.1718326,5.3972189 2.4388187,5.3424759 2.6203501,5.4542456 L 6.8885145,7.9115385 C 7.299288,8.1501698 7.3716035,8.2816829 7.3695706,8.817877 l -0.00118,4.688635 c 0.00492,0.426886 -0.2662172,0.481365 -0.7463127,0.205547 z"
       id="fill-left"
       sodipodi:nodetypes="ccccccccc" />
    <path
       id="fill-left-3"
       style="fill:#9f9f9f;fill-opacity:1;stroke:none;stroke-width:1.03929;stroke-dasharray:none;paint-order:markers stroke fill"
       d="m 13.371094,5.3984375 c -0.07359,-0.00532 -0.154582,0.014727 -0.222656,0.056641 L 8.8808594,7.9121094 c -0.4107731,0.238631 -0.4825017,0.3700564 -0.4804688,0.90625 v 4.6874996 c -0.00492,0.426886 0.2659988,0.482849 0.7460938,0.207032 l 2.2929686,-1.314453 c -0.0695,-0.06013 -0.135463,-0.122122 -0.195312,-0.189454 -0.414154,-0.465922 -0.59961,-1.046691 -0.59961,-1.615234 0,-0.568543 0.185456,-1.1512649 0.59961,-1.6171875 0.414152,-0.4659226 1.073395,-0.7695313 1.785156,-0.7695313 h 0.570312 V 5.6269531 C 13.598787,5.4838921 13.493744,5.4073059 13.371094,5.3984375 Z"
       sodipodi:nodetypes="scccccccsssccs" />
    <path
       style="fill:#9f9f9f;fill-opacity:1;stroke:none;stroke-width:1.03929;stroke-dasharray:none;paint-order:markers stroke"
       d="m 3.19787,4.5871743 c -0.2310534,-0.1311381 -0.2260227,-0.4140679 0,-0.5504209 L 7.4232021,1.6194811 c 0.2249841,-0.1325031 0.698435,-0.108964 0.930617,0 L 12.58041,4.0307147 c 0.265132,0.166179 0.250133,0.4073784 0.0022,0.5548212 L 8.5076936,6.9394126 c -0.4036954,0.226528 -0.8154566,0.2384838 -1.2290894,0 z"
       id="path530"
       sodipodi:nodetypes="ccccccccc" />
  </g>
  <g
     id="pick">
    <path
       d="m 13.030245,9.2074919 h 3.176467 a 0.6926445,0.6926445 0 0 1 0.4897,0.2029448 l 4.442622,4.4426223 a 0.6926445,0.6926445 0 0 1 0.202945,0.4897 v 3.176467 a 1.385289,1.385289 0 1 1 -2.770578,0 V 15.441293 L 15.108178,11.97807 h -2.077933 a 1.385289,1.385289 0 1 1 0,-2.7705781 z"
       id="path6"
       inkscape:export-filename="../.minetest/mods/i3/textures/i3_item_on.png"
       inkscape:export-xdpi="307.30972"
       inkscape:export-ydpi="307.30972"
       style="stroke-width:1.03897;fill:#9f9f9f;stroke:none;stroke-opacity:1;fill-opacity:1" />
    <path
       d="m 15.516651,15.122305 -5.242094,5.140208"
       id="path5522"
       style="fill:none;stroke:#9f9f9f;stroke-width:2.77058;stroke-dasharray:none;stroke-opacity:1"
       sodipodi:nodetypes="cc" />
  </g>
</svg>
