<?xml version="1.0" encoding="UTF-8" standalone="no"?>
<!-- Created with Inkscape (http://www.inkscape.org/) -->

<svg
   width="64"
   height="64"
   viewBox="0 0 64 64"
   version="1.1"
   id="svg906"
   xml:space="preserve"
   inkscape:version="1.2.2 (b0a8486541, 2022-12-01)"
   sodipodi:docname="i3_find_more.svg"
   inkscape:export-filename="../textures/i3_find_more.png"
   inkscape:export-xdpi="768"
   inkscape:export-ydpi="768"
   xmlns:inkscape="http://www.inkscape.org/namespaces/inkscape"
   xmlns:sodipodi="http://sodipodi.sourceforge.net/DTD/sodipodi-0.dtd"
   xmlns="http://www.w3.org/2000/svg"
   xmlns:svg="http://www.w3.org/2000/svg"><sodipodi:namedview
     id="namedview908"
     pagecolor="#6f6f6f"
     bordercolor="#666666"
     borderopacity="1.0"
     inkscape:showpageshadow="2"
     inkscape:pageopacity="0"
     inkscape:pagecheckerboard="0"
     inkscape:deskcolor="#d1d1d1"
     inkscape:document-units="mm"
     showgrid="false"
     inkscape:zoom="5.9010101"
     inkscape:cx="24.826258"
     inkscape:cy="25.419377"
     inkscape:window-width="1916"
     inkscape:window-height="1037"
     inkscape:window-x="1920"
     inkscape:window-y="0"
     inkscape:window-maximized="1"
     inkscape:current-layer="magnifier"
     showguides="false"><sodipodi:guide
       position="-4.3752231,14.967653"
       orientation="1,0"
       id="guide1494"
       inkscape:locked="false" /></sodipodi:namedview><defs
     id="defs903" /><g
     inkscape:label="Layer 1"
     inkscape:groupmode="layer"
     id="layer1"
     style="fill:currentColor"><g
       id="g2119"
       style="fill:#fcfefb;fill-opacity:1"><path
         d="M 25.799995,2 H 6.2000052 A 4.2000052,4.2000007 0 0 0 2,6.2000007 V 25.8 A 4.2000052,4.2000007 0 0 0 6.2000052,30 H 25.799995 A 4.2000052,4.2000007 0 0 0 30,25.8 V 6.2000007 A 4.2000052,4.2000007 0 0 0 25.799995,2 Z"
         id="upperleft"
         style="fill:#fcfefb;stroke-width:1.4;fill-opacity:1" /><path
         d="M 57.799996,2 H 38.200003 A 4.2000051,4.2000003 0 0 0 34,6.2000006 V 25.8 A 4.2000051,4.2000003 0 0 0 38.200003,30 H 57.799996 A 4.2000051,4.2000003 0 0 0 62,25.8 V 6.2000006 A 4.2000051,4.2000003 0 0 0 57.799996,2 Z"
         id="upperright"
         style="fill:#fcfefb;stroke-width:1.4;fill-opacity:1" /><path
         d="M 25.799995,34 H 6.2000052 A 4.2000052,4.2000007 0 0 0 2,38.199998 v 19.6 A 4.2000052,4.2000007 0 0 0 6.2000052,62 H 25.799995 A 4.2000052,4.2000007 0 0 0 30,57.799998 v -19.6 A 4.2000052,4.2000007 0 0 0 25.799995,34 Z"
         id="bottomleft"
         style="fill:#fcfefb;stroke-width:1.4;fill-opacity:1" /><g
         id="magnifier"
         transform="matrix(1.4,0,0,1.4,33.2,33.2)"
         style="stroke-width:2;stroke-linecap:round;stroke-linejoin:round;fill:#fcfefb;fill-opacity:1"><path
           d="M 10,10 M 3,10 A 7,7 0 1 0 17,10 7,7 0 1 0 3,10"
           id="lens"
           style="fill:#fcfefb;fill-opacity:0;stroke:#ffffff;stroke-opacity:1" /><path
           d="M 21,21 15,15"
           id="handle"
           style="fill:#fcfefb;fill-opacity:1;stroke:#ffffff;stroke-opacity:1" /></g></g></g></svg>
