<?xml version="1.0" encoding="UTF-8" standalone="no"?>
<svg
   class="icon icon-tabler icon-tabler-pick"
   width="24"
   height="24"
   viewBox="0 0 24 24"
   stroke-width="0"
   stroke="#9f9f9f"
   fill="#9f9f9f"
   stroke-linecap="round"
   stroke-linejoin="round"
   version="1.1"
   id="svg8"
   sodipodi:docname="i3_item_on.svg"
   inkscape:version="1.2.2 (b0a8486541, 2022-12-01)"
   inkscape:export-filename="../textures/i3_item_on.png"
   inkscape:export-xdpi="256"
   inkscape:export-ydpi="256"
   xmlns:inkscape="http://www.inkscape.org/namespaces/inkscape"
   xmlns:sodipodi="http://sodipodi.sourceforge.net/DTD/sodipodi-0.dtd"
   xmlns="http://www.w3.org/2000/svg"
   xmlns:svg="http://www.w3.org/2000/svg">
  <defs
     id="defs12" />
  <sodipodi:namedview
     id="namedview10"
     pagecolor="#ffffff"
     bordercolor="#666666"
     borderopacity="1.0"
     inkscape:showpageshadow="2"
     inkscape:pageopacity="0.0"
     inkscape:pagecheckerboard="0"
     inkscape:deskcolor="#d1d1d1"
     showgrid="false"
     inkscape:zoom="11.313709"
     inkscape:cx="8.4852814"
     inkscape:cy="4.2426407"
     inkscape:window-width="956"
     inkscape:window-height="1037"
     inkscape:window-x="1920"
     inkscape:window-y="0"
     inkscape:window-maximized="1"
     inkscape:current-layer="svg8" />
  <path
     stroke="none"
     d="M0 0h24v24H0z"
     fill="none"
     id="path2" />
  <path
     style="color:#000000;fill:none;stroke-width:0;-inkscape-stroke:none;stroke:none"
     d="m 11.586,9.414 -7.969,8.004 c -0.8231947,0.817703 -0.8231947,2.149297 0,2.967 0.8230839,0.818693 2.1529161,0.818693 2.976,0 l 7.993,-7.971 c -0.223351,-0.847575 0.09797,-1.817979 -0.670054,-2.5427245"
     id="path5298"
     sodipodi:nodetypes="cccccc" />
  <path
     d="M9 3h4.586a1 1 0 0 1 .707 .293l6.414 6.414a1 1 0 0 1 .293 .707v4.586a2 2 0 1 1 -4 0v-3l-5 -5h-3a2 2 0 1 1 0 -4z"
     id="path6"
     inkscape:export-filename="../.minetest/mods/i3/textures/i3_item_on.png"
     inkscape:export-xdpi="307.30972"
     inkscape:export-ydpi="307.30972" />
  <path
     d="M 12.589729,11.539464 5.0214982,18.9606"
     id="path5522"
     style="fill:none;stroke:#9f9f9f;stroke-width:4;stroke-dasharray:none;stroke-opacity:1"
     sodipodi:nodetypes="cc" />
</svg>
