<?xml version="1.0" encoding="UTF-8" standalone="no"?>
<svg
   class="icon icon-tabler icon-tabler-pick"
   width="24"
   height="24"
   viewBox="0 0 24 24"
   stroke-width="1.5"
   stroke="#9f9f9f"
   fill="none"
   stroke-linecap="round"
   stroke-linejoin="round"
   version="1.1"
   id="svg6527"
   sodipodi:docname="i3_item.svg"
   inkscape:version="1.2.2 (b0a8486541, 2022-12-01)"
   inkscape:export-filename="../textures/i3_item.png"
   inkscape:export-xdpi="315.14853"
   inkscape:export-ydpi="315.14853"
   xmlns:inkscape="http://www.inkscape.org/namespaces/inkscape"
   xmlns:sodipodi="http://sodipodi.sourceforge.net/DTD/sodipodi-0.dtd"
   xmlns="http://www.w3.org/2000/svg"
   xmlns:svg="http://www.w3.org/2000/svg">
  <defs
     id="defs6531" />
  <sodipodi:namedview
     id="namedview6529"
     pagecolor="#ffffff"
     bordercolor="#666666"
     borderopacity="1.0"
     inkscape:showpageshadow="2"
     inkscape:pageopacity="0.0"
     inkscape:pagecheckerboard="0"
     inkscape:deskcolor="#d1d1d1"
     showgrid="false"
     inkscape:zoom="11.844039"
     inkscape:cx="14.437643"
     inkscape:cy="12.411307"
     inkscape:window-width="956"
     inkscape:window-height="1037"
     inkscape:window-x="2880"
     inkscape:window-y="0"
     inkscape:window-maximized="1"
     inkscape:current-layer="svg6527" />
  <path
     stroke="none"
     d="M0 0h24v24H0z"
     fill="none"
     id="path6521" />
  <path
     d="M13 8l-9.383 9.418a2.091 2.091 0 0 0 0 2.967a2.11 2.11 0 0 0 2.976 0l9.407 -9.385"
     id="path6523"
     inkscape:export-filename="../.minetest/mods/i3/textures/i3_item.png"
     inkscape:export-xdpi="315.14853"
     inkscape:export-ydpi="315.14853" />
  <path
     d="M9 3h4.586a1 1 0 0 1 .707 .293l6.414 6.414a1 1 0 0 1 .293 .707v4.586a2 2 0 1 1 -4 0v-3l-5 -5h-3a2 2 0 1 1 0 -4z"
     id="path6525" />
</svg>
