<?xml version="1.0" encoding="UTF-8" standalone="no"?>
<!-- Created with Inkscape (http://www.inkscape.org/) -->

<svg
   width="512"
   height="512"
   viewBox="0 0 512 512"
   version="1.1"
   id="svg7556"
   xml:space="preserve"
   inkscape:version="1.2.2 (b0a8486541, 2022-12-01)"
   sodipodi:docname="i3_no_result.svg"
   inkscape:export-filename="../textures/i3_no_result.png"
   inkscape:export-xdpi="96"
   inkscape:export-ydpi="96"
   xmlns:inkscape="http://www.inkscape.org/namespaces/inkscape"
   xmlns:sodipodi="http://sodipodi.sourceforge.net/DTD/sodipodi-0.dtd"
   xmlns="http://www.w3.org/2000/svg"
   xmlns:svg="http://www.w3.org/2000/svg"><sodipodi:namedview
     id="namedview7558"
     pagecolor="#36393f"
     bordercolor="#666666"
     borderopacity="1.0"
     inkscape:showpageshadow="2"
     inkscape:pageopacity="0"
     inkscape:pagecheckerboard="0"
     inkscape:deskcolor="#d1d1d1"
     inkscape:document-units="mm"
     showgrid="false"
     showguides="true"
     inkscape:zoom="0.8762876"
     inkscape:cx="231.08851"
     inkscape:cy="175.74139"
     inkscape:window-width="1916"
     inkscape:window-height="1037"
     inkscape:window-x="1920"
     inkscape:window-y="0"
     inkscape:window-maximized="1"
     inkscape:current-layer="layer1"><sodipodi:guide
       position="256,256"
       orientation="0,1"
       id="guide26406"
       inkscape:locked="false"
       inkscape:label=""
       inkscape:color="rgb(0,134,229)" /><sodipodi:guide
       position="256,256"
       orientation="1,0"
       id="guide28002"
       inkscape:locked="false" /><sodipodi:guide
       position="256,230.81457"
       orientation="0,-1"
       id="guide28004"
       inkscape:locked="false" /></sodipodi:namedview><defs
     id="defs7553" /><g
     inkscape:label="Layer 1"
     inkscape:groupmode="layer"
     id="layer1"><path
       id="path36506"
       style="fill:#eff1ee;fill-opacity:1;stroke:none;stroke-opacity:1"
       d="M 256 161.58203 C 211.30358 161.58255 174.89854 196.8615 173.49023 241.5332 L 173.44727 244.22266 L 173.43555 325.875 L 173.32422 327.15039 C 172.7971 336.39462 178.11906 344.87106 186.68164 348.4043 C 195.26109 351.94448 205.03761 349.67677 211.17969 342.7207 L 210.79883 343.17578 C 214.24088 338.81441 220.03319 335.625 225.66992 335.625 L 225.67188 335.625 L 225.67383 335.625 C 231.31247 335.62742 236.65794 338.23662 240.12891 342.67969 L 240.13281 342.68359 C 248.35732 353.20176 263.6486 353.20096 271.87109 342.67969 L 271.87109 342.67773 L 271.87305 342.67578 C 279.06248 333.48353 293.59769 333.48351 300.78711 342.67578 L 300.1543 341.9375 L 301.54883 343.42383 C 308.38358 350.18014 317.7083 351.81354 325.91992 348.13477 L 327.27148 347.4707 C 334.72948 343.48005 339.1558 335.58716 338.67383 327.14258 L 338.54297 325.77344 L 338.55469 244.2207 L 338.51172 241.5332 C 337.10362 196.86187 300.69643 161.58255 256 161.58203 z M 232.78516 220.80273 C 238.95737 220.80955 244.05625 225.62354 244.41797 231.78516 C 244.77969 237.94677 240.27941 243.32379 234.15039 244.05273 L 232.66797 244.13477 C 226.49574 244.12796 221.39883 239.31397 221.03711 233.15234 C 220.67539 226.99074 225.17565 221.61372 231.30469 220.88477 L 232.78516 220.80273 z M 279.44727 220.80273 C 285.61948 220.80954 290.71836 225.62353 291.08008 231.78516 C 291.4418 237.94676 286.94152 243.32378 280.8125 244.05273 L 279.33203 244.13477 C 273.15982 244.12795 268.06094 239.31396 267.69922 233.15234 C 267.3375 226.99073 271.83776 221.61371 277.9668 220.88477 L 279.44727 220.80273 z M 256 264.79688 A 22.616093 16.38908 0 0 1 278.61523 281.18555 A 22.616093 16.38908 0 0 1 256 297.57422 A 22.616093 16.38908 0 0 1 233.38477 281.18555 A 22.616093 16.38908 0 0 1 256 264.79688 z " /><g
       id="left4"
       style="fill:none;stroke:#fcfefb;stroke-width:17.5927;stroke-opacity:1"><path
         d="m 42.84724,185.62916 v 52.77813 A 17.59271,17.59271 0 0 0 60.43995,256 h 52.77813"
         id="path22353" /><path
         d="M 113.21808,185.62916 V 326.37084"
         id="path22355" /></g><g
       id="right4"
       style="fill:none;stroke:#fcfefb;stroke-width:17.5927;stroke-opacity:1"><path
         d="m 389.93284,185.62916 v 52.77813 A 17.59271,17.59271 0 0 0 407.52555,256 h 52.77813"
         id="path23496" /><path
         d="M 460.30368,185.62916 V 326.37084"
         id="path23498" /></g></g></svg>
