# Blender v2.79 (sub 0) OBJ File: 'fan_large_v2.blend'
# www.blender.org
mtllib derilict_building_fan_large.mtl
o fan_large_Cube
v 0.500000 -0.500000 -0.500000
v 0.500000 -0.500000 1.500000
v -0.500000 -0.500000 1.500000
v -0.500000 -0.500000 -0.500000
v 0.500000 1.500000 -0.500000
v 0.500000 1.500000 1.500001
v -0.500000 1.500000 1.500000
v -0.500000 1.500000 -0.500000
v -0.500000 0.500000 -0.400000
v 0.500000 0.500000 -0.400000
v -0.500000 0.155585 -0.331491
v 0.500000 0.155585 -0.331491
v -0.500000 -0.136396 -0.136396
v 0.500000 -0.136396 -0.136396
v -0.500000 -0.331492 0.155585
v 0.500000 -0.331492 0.155585
v -0.500000 -0.400000 0.500000
v 0.500000 -0.400000 0.500000
v -0.500000 -0.331492 0.844415
v 0.500000 -0.331492 0.844415
v -0.500000 -0.136396 1.136396
v 0.500000 -0.136396 1.136396
v -0.500000 0.155585 1.331491
v 0.500000 0.155585 1.331491
v -0.500000 0.500000 1.400000
v 0.500000 0.500000 1.400000
v -0.500000 0.844415 1.331492
v 0.500000 0.844415 1.331492
v -0.500000 1.136396 1.136396
v 0.500000 1.136396 1.136396
v -0.500000 1.331491 0.844415
v 0.500000 1.331491 0.844415
v -0.500000 1.400000 0.500000
v 0.500000 1.400000 0.500000
v -0.500000 1.331491 0.155585
v 0.500000 1.331491 0.155585
v -0.500000 1.136396 -0.136396
v 0.500000 1.136396 -0.136396
v -0.500000 0.844415 -0.331492
v 0.500000 0.844415 -0.331492
v 0.000000 0.500000 0.500000
v 0.000000 0.500000 -0.396000
v -0.000000 0.157116 -0.327796
v -0.000000 -0.133568 -0.133568
v -0.000000 -0.327796 0.157116
v -0.000000 -0.396000 0.500000
v -0.000000 -0.327796 0.842884
v -0.000000 -0.133568 1.133568
v -0.000000 0.157116 1.327796
v -0.000000 0.500000 1.396000
v 0.000000 0.842884 1.327796
v 0.000000 1.133568 1.133568
v 0.000000 1.327796 0.842884
v 0.000000 1.396000 0.500000
v 0.000000 1.327796 0.157116
v 0.000000 1.133568 -0.133568
v 0.000000 0.842884 -0.327796
v -0.250000 0.250000 0.750000
v -0.250000 0.750000 0.750000
v -0.250000 0.250000 0.250000
v -0.250000 0.750000 0.250000
v 0.250000 0.250000 0.750000
v 0.250000 0.750000 0.750000
v 0.250000 0.250000 0.250000
v 0.250000 0.750000 0.250000
v -0.500000 -0.500000 0.500000
v -0.500000 0.500000 1.500000
v 0.500000 0.500000 -0.500000
v 0.500000 0.500000 1.500000
v -0.500000 0.500000 -0.500000
v -0.500000 1.500000 0.500000
v 0.500000 -0.500000 0.500000
v 0.500000 1.500000 0.500000
v 0.500000 -0.500000 -0.500000
v 0.500000 -0.500000 0.500000
v 0.500000 -0.500000 0.000000
v 0.500000 -0.500000 1.000000
v 0.500000 0.000000 1.500000
v 0.500000 0.000000 -0.500000
v 0.500000 1.000000 -0.500000
v 0.500000 1.500000 0.000000
v 0.500000 1.500000 1.000000
v 0.500000 1.000000 1.500000
v -0.500000 1.000000 -0.500000
v -0.500000 0.000000 -0.500000
v -0.500000 -0.500000 -0.000000
v -0.500000 -0.500000 1.000000
v -0.500000 0.000000 1.500000
v -0.500000 1.000000 1.500000
v -0.500000 1.500000 1.000000
v -0.500000 1.500000 -0.000000
vt 0.833333 0.500000
vt 0.833333 0.334196
vt 1.000000 0.333333
vt 1.000000 0.500000
vt 0.666673 0.499973
vt 0.833327 0.499973
vt 0.833327 0.666626
vt 0.666674 0.666626
vt 0.666690 0.333357
vt 0.666690 0.500000
vt 0.500047 0.500000
vt 0.500047 0.333357
vt 0.666660 0.666653
vt 0.500007 0.666653
vt 0.500007 0.500000
vt 0.666660 0.500000
vt 0.166667 0.583333
vt 0.000000 0.583332
vt 0.000000 0.500000
vt 0.166667 0.500000
vt 0.166667 0.666667
vt 0.000000 0.666664
vt 0.166667 0.750000
vt 0.000000 0.749994
vt 0.000000 0.833321
vt 0.166667 0.833333
vt 0.166667 0.916667
vt 0.000000 0.916645
vt 0.166667 1.000000
vt 0.000000 0.999965
vt 0.500000 0.666667
vt 0.500000 0.750000
vt 0.333333 0.750000
vt 0.333333 0.666667
vt 0.500000 0.833333
vt 0.333333 0.833333
vt 0.500000 0.916667
vt 0.333333 0.916667
vt 0.500000 1.000000
vt 0.333333 1.000000
vt 0.166667 0.000000
vt 0.166667 0.083333
vt 0.000000 0.083355
vt 0.000000 0.000000
vt 0.000000 0.166679
vt 0.166667 0.166667
vt 0.000000 0.250007
vt 0.166667 0.250000
vt 0.000000 0.333336
vt 0.166667 0.333333
vt 0.166667 0.416667
vt 0.000000 0.416668
vt 0.833333 0.166667
vt 0.833987 0.316515
vt 0.776593 0.305359
vt 0.727837 0.273088
vt 0.695142 0.224615
vt 0.683485 0.167320
vt 0.694641 0.109926
vt 0.726912 0.061170
vt 0.775385 0.028475
vt 0.832680 0.016818
vt 0.890074 0.027974
vt 0.938830 0.060245
vt 0.971525 0.108718
vt 0.983182 0.166013
vt 0.972026 0.223407
vt 0.939755 0.272163
vt 0.891282 0.304859
vt 0.833423 0.666667
vt 0.833423 0.833153
vt 0.666577 0.833243
vt 0.666577 0.666577
vt 0.666667 0.833333
vt 0.666667 1.000000
vt 0.500000 1.000000
vt 0.500000 0.833333
vt 1.000000 0.833153
vt 1.000000 0.999820
vt 0.833423 1.000000
vt 0.833333 0.833153
vt 0.833423 0.833333
vt 0.833243 0.999910
vt 0.666577 0.999910
vt 0.666577 0.833243
vt 0.666622 0.833198
vt 0.500135 0.833108
vt 0.500135 0.666622
vt 0.833333 0.833333
vt 0.833423 0.666667
vt 0.999910 0.666667
vt 0.999910 0.833153
vt 0.999993 0.499986
vt 0.999993 0.666639
vt 0.666660 0.333347
vt 0.500007 0.333347
vt 0.666667 0.500000
vt 0.666667 0.333333
vt 0.666690 0.666643
vt 0.500047 0.666643
vt 0.393938 0.272695
vt 0.361429 0.224041
vt 0.333350 0.249967
vt 0.333350 0.333283
vt 0.350013 0.166650
vt 0.333350 0.166650
vt 0.361429 0.109259
vt 0.333350 0.083333
vt 0.393938 0.060605
vt 0.333350 0.000017
vt 0.442592 0.028096
vt 0.499983 0.016680
vt 0.499983 0.000017
vt 0.416666 0.000017
vt 0.499983 0.316620
vt 0.442592 0.305204
vt 0.416667 0.333283
vt 0.499983 0.333283
vt 0.557374 0.305204
vt 0.583300 0.333283
vt 0.606028 0.272695
vt 0.666650 0.333283
vt 0.638537 0.224041
vt 0.666616 0.249967
vt 0.649953 0.166650
vt 0.666616 0.166650
vt 0.638537 0.109259
vt 0.666616 0.083334
vt 0.606028 0.060605
vt 0.666616 0.000017
vt 0.557374 0.028096
vt 0.583300 0.000017
vt 0.775923 0.028113
vt 0.749997 0.000033
vt 0.666680 0.000034
vt 0.727269 0.060622
vt 0.833314 0.016697
vt 0.833314 0.000033
vt 0.890705 0.028112
vt 0.916630 0.000033
vt 0.939358 0.060622
vt 1.000000 0.000033
vt 0.971868 0.109276
vt 0.999947 0.083350
vt 0.983284 0.166667
vt 0.999947 0.166667
vt 0.971868 0.224058
vt 0.999947 0.249983
vt 0.939358 0.272711
vt 0.999947 0.333300
vt 0.890705 0.305221
vt 0.916630 0.333300
vt 0.833314 0.316637
vt 0.833314 0.333300
vt 0.775923 0.305221
vt 0.749997 0.333300
vt 0.727269 0.272711
vt 0.666680 0.333300
vt 0.694759 0.224058
vt 0.666680 0.249983
vt 0.683344 0.166667
vt 0.666680 0.166667
vt 0.694759 0.109276
vt 0.666680 0.083350
vt 0.166667 0.500000
vt 0.166667 0.416668
vt 0.333333 0.416667
vt 0.333333 0.500000
vt 0.166667 0.333336
vt 0.333333 0.333333
vt 0.166667 0.250006
vt 0.333333 0.250000
vt 0.166667 0.166679
vt 0.333333 0.166667
vt 0.166667 0.083355
vt 0.333333 0.083333
vt 0.166667 0.000000
vt 0.333333 0.000000
vt 0.333333 0.333333
vt 0.500000 0.333333
vt 0.500000 0.416667
vt 0.333333 0.416667
vt 0.500000 0.500000
vt 0.333333 0.500000
vt 0.500000 0.583333
vt 0.333333 0.583333
vt 0.500000 0.666667
vt 0.333333 0.666667
vt 0.333333 1.000000
vt 0.166667 0.999965
vt 0.166667 0.916645
vt 0.333333 0.916667
vt 0.166667 0.833321
vt 0.333333 0.833333
vt 0.166667 0.749993
vt 0.333333 0.750000
vt 0.166667 0.666664
vt 0.333333 0.666667
vt 0.166667 0.583332
vt 0.333333 0.583333
vn -0.0000 -0.0000 1.0000
vn 0.0000 0.0000 -1.0000
vn 0.0000 1.0000 -0.0000
vn 0.0000 -1.0000 0.0000
vn -0.0078 -0.9808 -0.1951
vn -0.0078 -0.8314 -0.5556
vn -0.0078 -0.5556 -0.8314
vn -0.0078 -0.1951 -0.9808
vn -0.0078 0.1951 -0.9808
vn -0.0078 0.5556 -0.8314
vn -0.0078 0.8314 -0.5556
vn -0.0078 0.9808 -0.1951
vn -0.0078 0.9808 0.1951
vn -0.0078 0.8314 0.5556
vn -0.0078 0.5556 0.8314
vn -0.0078 0.1951 0.9808
vn -0.0078 -0.1951 0.9808
vn -0.0078 -0.5556 0.8314
vn -0.0078 -0.8314 0.5556
vn -0.0078 -0.9808 0.1951
vn -1.0000 0.0000 0.0000
vn 1.0000 0.0000 0.0000
vn 0.0078 -0.9808 -0.1951
vn 0.0078 -0.8314 -0.5556
vn 0.0078 -0.5556 -0.8314
vn 0.0078 -0.1951 -0.9808
vn 0.0078 0.1951 -0.9808
vn 0.0078 0.5556 -0.8314
vn 0.0078 0.8314 -0.5556
vn 0.0078 0.9808 -0.1951
vn 0.0078 0.9808 0.1951
vn 0.0078 0.8314 0.5556
vn 0.0078 0.5556 0.8314
vn 0.0078 0.1951 0.9808
vn 0.0078 -0.1951 0.9808
vn 0.0078 -0.5556 0.8314
vn 0.0078 -0.8314 0.5556
vn 0.0078 -0.9808 0.1951
usemtl Material
s off
f 69/1/1 67/2/1 3/3/1 2/4/1
f 5/5/2 68/6/2 70/7/2 8/8/2
f 6/9/3 73/10/3 71/11/3 7/12/3
f 4/13/4 1/14/4 72/15/4 66/16/4
f 45/17/5 16/18/5 18/19/5 46/20/5
f 45/17/6 44/21/6 14/22/6 16/18/6
f 44/21/7 43/23/7 12/24/7 14/22/7
f 10/25/8 12/24/8 43/23/8 42/26/8
f 42/26/9 57/27/9 40/28/9 10/25/9
f 57/27/10 56/29/10 38/30/10 40/28/10
f 56/31/11 55/32/11 36/33/11 38/34/11
f 55/32/12 54/35/12 34/36/12 36/33/12
f 54/35/13 53/37/13 32/38/13 34/36/13
f 53/37/14 52/39/14 30/40/14 32/38/14
f 52/41/15 51/42/15 28/43/15 30/44/15
f 26/45/16 28/43/16 51/42/16 50/46/16
f 24/47/17 26/45/17 50/46/17 49/48/17
f 22/49/18 24/47/18 49/48/18 48/50/18
f 22/49/19 48/50/19 47/51/19 20/52/19
f 20/52/20 47/51/20 46/20/20 18/19/20
f 41/53/21 42/54/21 43/55/21
f 41/53/21 43/55/21 44/56/21
f 41/53/21 44/56/21 45/57/21
f 41/53/21 45/57/21 46/58/21
f 41/53/21 46/58/21 47/59/21
f 41/53/21 47/59/21 48/60/21
f 41/53/21 48/60/21 49/61/21
f 41/53/21 49/61/21 50/62/21
f 41/53/21 50/62/21 51/63/21
f 41/53/21 51/63/21 52/64/21
f 41/53/21 52/64/21 53/65/21
f 41/53/21 53/65/21 54/66/21
f 41/53/21 54/66/21 55/67/21
f 41/53/21 55/67/21 56/68/21
f 41/53/21 56/68/21 57/69/21
f 41/53/21 57/69/21 42/54/21
f 58/70/21 59/71/21 61/72/21 60/73/21
f 60/74/2 61/75/2 65/76/2 64/77/2
f 64/78/22 65/79/22 63/80/22 62/81/22
f 62/82/1 63/83/1 59/84/1 58/85/1
f 60/73/4 64/86/4 62/87/4 58/88/4
f 65/89/3 61/90/3 59/91/3 63/92/3
f 1/93/2 4/94/2 70/7/2 68/6/2
f 3/95/4 66/16/4 72/15/4 2/96/4
f 69/1/1 6/97/1 7/98/1 67/2/1
f 5/99/3 8/100/3 71/11/3 73/10/3
f 37/101/22 39/102/22 84/103/22 8/104/22
f 39/102/22 9/105/22 70/106/22 84/103/22
f 9/105/22 11/107/22 85/108/22 70/106/22
f 11/107/22 13/109/22 4/110/22 85/108/22
f 15/111/22 17/112/22 66/113/22 86/114/22
f 13/109/22 15/111/22 86/114/22 4/110/22
f 33/115/22 35/116/22 91/117/22 71/118/22
f 35/116/22 37/101/22 8/104/22 91/117/22
f 31/119/22 33/115/22 71/118/22 90/120/22
f 29/121/22 31/119/22 90/120/22 7/122/22
f 27/123/22 29/121/22 7/122/22 89/124/22
f 25/125/22 27/123/22 89/124/22 67/126/22
f 23/127/22 25/125/22 67/126/22 88/128/22
f 21/129/22 23/127/22 88/128/22 3/130/22
f 19/131/22 21/129/22 3/130/22 87/132/22
f 17/112/22 19/131/22 87/132/22 66/113/22
f 20/133/21 77/134/21 2/135/21 22/136/21
f 20/133/21 18/137/21 75/138/21 77/134/21
f 16/139/21 76/140/21 75/138/21 18/137/21
f 14/141/21 74/142/21 76/140/21 16/139/21
f 12/143/21 79/144/21 74/142/21 14/141/21
f 12/143/21 10/145/21 68/146/21 79/144/21
f 10/145/21 40/147/21 80/148/21 68/146/21
f 40/147/21 38/149/21 5/150/21 80/148/21
f 38/149/21 36/151/21 81/152/21 5/150/21
f 36/151/21 34/153/21 73/154/21 81/152/21
f 34/153/21 32/155/21 82/156/21 73/154/21
f 32/155/21 30/157/21 6/158/21 82/156/21
f 30/157/21 28/159/21 83/160/21 6/158/21
f 28/159/21 26/161/21 69/162/21 83/160/21
f 26/161/21 24/163/21 78/164/21 69/162/21
f 24/163/21 22/136/21 2/135/21 78/164/21
f 17/165/23 15/166/23 45/167/23 46/168/23
f 45/167/24 15/166/24 13/169/24 44/170/24
f 44/170/25 13/169/25 11/171/25 43/172/25
f 43/172/26 11/171/26 9/173/26 42/174/26
f 42/174/27 9/173/27 39/175/27 57/176/27
f 57/176/28 39/175/28 37/177/28 56/178/28
f 56/179/29 37/180/29 35/181/29 55/182/29
f 55/182/30 35/181/30 33/183/30 54/184/30
f 54/184/31 33/183/31 31/185/31 53/186/31
f 53/186/32 31/185/32 29/187/32 52/188/32
f 52/189/33 29/190/33 27/191/33 51/192/33
f 51/192/34 27/191/34 25/193/34 50/194/34
f 50/194/35 25/193/35 23/195/35 49/196/35
f 49/196/36 23/195/36 21/197/36 48/198/36
f 48/198/37 21/197/37 19/199/37 47/200/37
f 47/200/38 19/199/38 17/165/38 46/168/38
